%TF.GenerationSoftware,KiCad,Pcbnew,(5.1.9)-1*%
%TF.CreationDate,2021-05-28T15:44:06+02:00*%
%TF.ProjectId,16_STEP_DOWN,31365f53-5445-4505-9f44-4f574e2e6b69,rev?*%
%TF.SameCoordinates,Original*%
%TF.FileFunction,Copper,L2,Bot*%
%TF.FilePolarity,Positive*%
%FSLAX46Y46*%
G04 Gerber Fmt 4.6, Leading zero omitted, Abs format (unit mm)*
G04 Created by KiCad (PCBNEW (5.1.9)-1) date 2021-05-28 15:44:06*
%MOMM*%
%LPD*%
G01*
G04 APERTURE LIST*
%TA.AperFunction,Profile*%
%ADD10C,0.050000*%
%TD*%
%TA.AperFunction,ComponentPad*%
%ADD11C,1.524000*%
%TD*%
%TA.AperFunction,ComponentPad*%
%ADD12C,0.100000*%
%TD*%
%TA.AperFunction,ViaPad*%
%ADD13C,1.000000*%
%TD*%
%TA.AperFunction,Conductor*%
%ADD14C,0.400000*%
%TD*%
%TA.AperFunction,Conductor*%
%ADD15C,0.254000*%
%TD*%
%TA.AperFunction,Conductor*%
%ADD16C,0.100000*%
%TD*%
G04 APERTURE END LIST*
D10*
X119380000Y-67310000D02*
X120650000Y-67310000D01*
X119380000Y-64770000D02*
X119380000Y-67310000D01*
X120650000Y-64770000D02*
X119380000Y-64770000D01*
X120650000Y-62230000D02*
X120650000Y-64770000D01*
X119380000Y-62230000D02*
X120650000Y-62230000D01*
X119380000Y-60960000D02*
X119380000Y-62230000D01*
X113665000Y-60960000D02*
X119380000Y-60960000D01*
X114935000Y-81280000D02*
X120650000Y-81280000D01*
X101600000Y-62230000D02*
X101600000Y-60960000D01*
X100330000Y-62230000D02*
X101600000Y-62230000D01*
X100330000Y-64770000D02*
X100330000Y-62230000D01*
X101600000Y-67310000D02*
X100330000Y-67310000D01*
X101600000Y-74930000D02*
X101600000Y-67310000D01*
X100330000Y-74930000D02*
X101600000Y-74930000D01*
X120650000Y-67310000D02*
X120650000Y-81280000D01*
X101600000Y-60960000D02*
X113665000Y-60960000D01*
X101600000Y-80010000D02*
X101600000Y-81280000D01*
X100330000Y-80010000D02*
X101600000Y-80010000D01*
X100330000Y-64770000D02*
X100330000Y-67310000D01*
X114935000Y-81280000D02*
X101600000Y-81280000D01*
X100330000Y-80010000D02*
X100330000Y-74930000D01*
D11*
%TO.P,J4,1*%
%TO.N,EN*%
X101600000Y-78740000D03*
%TA.AperFunction,ComponentPad*%
D12*
G36*
X101928132Y-79589917D02*
G01*
X101845251Y-79584703D01*
X101763275Y-79571425D01*
X101682986Y-79550212D01*
X101605149Y-79521265D01*
X101530509Y-79484861D01*
X101459778Y-79441346D01*
X101393631Y-79391138D01*
X101332698Y-79334714D01*
X101277563Y-79272613D01*
X101228750Y-79205429D01*
X101186727Y-79133802D01*
X101151894Y-79058416D01*
X101124583Y-78979990D01*
X101105056Y-78899274D01*
X101093498Y-78817038D01*
X101090021Y-78734066D01*
X101094656Y-78651151D01*
X101107361Y-78569084D01*
X101128013Y-78488648D01*
X101156416Y-78410612D01*
X101192299Y-78335719D01*
X101235318Y-78264686D01*
X101285064Y-78198190D01*
X101341061Y-78136865D01*
X101402775Y-78081297D01*
X101469617Y-78032017D01*
X101540949Y-77989495D01*
X101616090Y-77954136D01*
X101694323Y-77926278D01*
X101774901Y-77906188D01*
X101857055Y-77894057D01*
X101940000Y-77890000D01*
X104990000Y-77890000D01*
X104990000Y-79590000D01*
X101940000Y-79590000D01*
X101928132Y-79589917D01*
G37*
%TD.AperFunction*%
%TD*%
D11*
%TO.P,J1,1*%
%TO.N,GND*%
X101600000Y-66040000D03*
%TA.AperFunction,ComponentPad*%
D12*
G36*
X101928132Y-66889917D02*
G01*
X101845251Y-66884703D01*
X101763275Y-66871425D01*
X101682986Y-66850212D01*
X101605149Y-66821265D01*
X101530509Y-66784861D01*
X101459778Y-66741346D01*
X101393631Y-66691138D01*
X101332698Y-66634714D01*
X101277563Y-66572613D01*
X101228750Y-66505429D01*
X101186727Y-66433802D01*
X101151894Y-66358416D01*
X101124583Y-66279990D01*
X101105056Y-66199274D01*
X101093498Y-66117038D01*
X101090021Y-66034066D01*
X101094656Y-65951151D01*
X101107361Y-65869084D01*
X101128013Y-65788648D01*
X101156416Y-65710612D01*
X101192299Y-65635719D01*
X101235318Y-65564686D01*
X101285064Y-65498190D01*
X101341061Y-65436865D01*
X101402775Y-65381297D01*
X101469617Y-65332017D01*
X101540949Y-65289495D01*
X101616090Y-65254136D01*
X101694323Y-65226278D01*
X101774901Y-65206188D01*
X101857055Y-65194057D01*
X101940000Y-65190000D01*
X104990000Y-65190000D01*
X104990000Y-66890000D01*
X101940000Y-66890000D01*
X101928132Y-66889917D01*
G37*
%TD.AperFunction*%
%TD*%
D11*
%TO.P,J2,1*%
%TO.N,V_BRUT*%
X101600000Y-63500000D03*
%TA.AperFunction,ComponentPad*%
D12*
G36*
X101928132Y-64349917D02*
G01*
X101845251Y-64344703D01*
X101763275Y-64331425D01*
X101682986Y-64310212D01*
X101605149Y-64281265D01*
X101530509Y-64244861D01*
X101459778Y-64201346D01*
X101393631Y-64151138D01*
X101332698Y-64094714D01*
X101277563Y-64032613D01*
X101228750Y-63965429D01*
X101186727Y-63893802D01*
X101151894Y-63818416D01*
X101124583Y-63739990D01*
X101105056Y-63659274D01*
X101093498Y-63577038D01*
X101090021Y-63494066D01*
X101094656Y-63411151D01*
X101107361Y-63329084D01*
X101128013Y-63248648D01*
X101156416Y-63170612D01*
X101192299Y-63095719D01*
X101235318Y-63024686D01*
X101285064Y-62958190D01*
X101341061Y-62896865D01*
X101402775Y-62841297D01*
X101469617Y-62792017D01*
X101540949Y-62749495D01*
X101616090Y-62714136D01*
X101694323Y-62686278D01*
X101774901Y-62666188D01*
X101857055Y-62654057D01*
X101940000Y-62650000D01*
X104990000Y-62650000D01*
X104990000Y-64350000D01*
X101940000Y-64350000D01*
X101928132Y-64349917D01*
G37*
%TD.AperFunction*%
%TD*%
D11*
%TO.P,J3,1*%
%TO.N,5V*%
X101600000Y-76200000D03*
%TA.AperFunction,ComponentPad*%
D12*
G36*
X101928132Y-77049917D02*
G01*
X101845251Y-77044703D01*
X101763275Y-77031425D01*
X101682986Y-77010212D01*
X101605149Y-76981265D01*
X101530509Y-76944861D01*
X101459778Y-76901346D01*
X101393631Y-76851138D01*
X101332698Y-76794714D01*
X101277563Y-76732613D01*
X101228750Y-76665429D01*
X101186727Y-76593802D01*
X101151894Y-76518416D01*
X101124583Y-76439990D01*
X101105056Y-76359274D01*
X101093498Y-76277038D01*
X101090021Y-76194066D01*
X101094656Y-76111151D01*
X101107361Y-76029084D01*
X101128013Y-75948648D01*
X101156416Y-75870612D01*
X101192299Y-75795719D01*
X101235318Y-75724686D01*
X101285064Y-75658190D01*
X101341061Y-75596865D01*
X101402775Y-75541297D01*
X101469617Y-75492017D01*
X101540949Y-75449495D01*
X101616090Y-75414136D01*
X101694323Y-75386278D01*
X101774901Y-75366188D01*
X101857055Y-75354057D01*
X101940000Y-75350000D01*
X104990000Y-75350000D01*
X104990000Y-77050000D01*
X101940000Y-77050000D01*
X101928132Y-77049917D01*
G37*
%TD.AperFunction*%
%TD*%
D11*
%TO.P,J5,1*%
%TO.N,GND*%
X119380000Y-63500000D03*
%TA.AperFunction,ComponentPad*%
D12*
G36*
X119051868Y-62650083D02*
G01*
X119134749Y-62655297D01*
X119216725Y-62668575D01*
X119297014Y-62689788D01*
X119374851Y-62718735D01*
X119449491Y-62755139D01*
X119520222Y-62798654D01*
X119586369Y-62848862D01*
X119647302Y-62905286D01*
X119702437Y-62967387D01*
X119751250Y-63034571D01*
X119793273Y-63106198D01*
X119828106Y-63181584D01*
X119855417Y-63260010D01*
X119874944Y-63340726D01*
X119886502Y-63422962D01*
X119889979Y-63505934D01*
X119885344Y-63588849D01*
X119872639Y-63670916D01*
X119851987Y-63751352D01*
X119823584Y-63829388D01*
X119787701Y-63904281D01*
X119744682Y-63975314D01*
X119694936Y-64041810D01*
X119638939Y-64103135D01*
X119577225Y-64158703D01*
X119510383Y-64207983D01*
X119439051Y-64250505D01*
X119363910Y-64285864D01*
X119285677Y-64313722D01*
X119205099Y-64333812D01*
X119122945Y-64345943D01*
X119040000Y-64350000D01*
X115990000Y-64350000D01*
X115990000Y-62650000D01*
X119040000Y-62650000D01*
X119051868Y-62650083D01*
G37*
%TD.AperFunction*%
%TD*%
D13*
%TO.N,GND*%
X112395000Y-66675000D03*
X106640000Y-80010000D03*
X118110000Y-76200000D03*
X112395000Y-67945000D03*
X112395000Y-65405000D03*
X116840000Y-74740000D03*
X119380000Y-72390000D03*
X111760000Y-80010000D03*
X114300000Y-80010000D03*
X116840000Y-80010000D03*
X119380000Y-80010000D03*
X116840000Y-77470000D03*
X115570000Y-76200000D03*
X118110000Y-73660000D03*
X119380000Y-74930000D03*
X119380000Y-77470000D03*
X119380000Y-69850000D03*
X118110000Y-68580000D03*
X118110000Y-66040000D03*
X102870000Y-68580000D03*
X102870000Y-71120000D03*
X102870000Y-73660000D03*
%TO.N,EN*%
X110640000Y-74740000D03*
%TD*%
D14*
%TO.N,GND*%
X111640000Y-80240000D02*
X106640000Y-80240000D01*
X104140000Y-66040000D02*
X105410000Y-66040000D01*
X105410000Y-66040000D02*
X107950000Y-63500000D01*
X114300000Y-63500000D02*
X116840000Y-63500000D01*
X111760000Y-80010000D02*
X119380000Y-80010000D01*
X119380000Y-77470000D02*
X119380000Y-80010000D01*
X116840000Y-77470000D02*
X116840000Y-80010000D01*
X119380000Y-77470000D02*
X119380000Y-69850000D01*
X116840000Y-77470000D02*
X116840000Y-74740000D01*
X118110000Y-76200000D02*
X118110000Y-73660000D01*
X115570000Y-76200000D02*
X116840000Y-77470000D01*
X118110000Y-73660000D02*
X119380000Y-74930000D01*
X118110000Y-68580000D02*
X119380000Y-69850000D01*
X118110000Y-66040000D02*
X118110000Y-68580000D01*
X118110000Y-64770000D02*
X116840000Y-63500000D01*
X118110000Y-66040000D02*
X118110000Y-64770000D01*
X112395000Y-67945000D02*
X112395000Y-65405000D01*
X112395000Y-63500000D02*
X114300000Y-63500000D01*
X112395000Y-65405000D02*
X112395000Y-63500000D01*
X107950000Y-63500000D02*
X112395000Y-63500000D01*
%TO.N,EN*%
X110640000Y-74740000D02*
X110640000Y-76740000D01*
X108640000Y-78740000D02*
X104140000Y-78740000D01*
X110640000Y-76740000D02*
X108640000Y-78740000D01*
%TD*%
D15*
%TO.N,GND*%
X118720001Y-62197571D02*
X118716807Y-62230000D01*
X118720037Y-62262799D01*
X118661020Y-62294344D01*
X118594040Y-62534435D01*
X119380000Y-63320395D01*
X119394143Y-63306253D01*
X119573748Y-63485858D01*
X119559605Y-63500000D01*
X119573748Y-63514143D01*
X119394143Y-63693748D01*
X119380000Y-63679605D01*
X118594040Y-64465565D01*
X118661020Y-64705656D01*
X118720394Y-64733576D01*
X118716807Y-64770000D01*
X118720000Y-64802418D01*
X118720001Y-67277571D01*
X118716807Y-67310000D01*
X118729550Y-67439383D01*
X118767290Y-67563793D01*
X118828575Y-67678450D01*
X118911052Y-67778948D01*
X119011550Y-67861425D01*
X119126207Y-67922710D01*
X119250617Y-67960450D01*
X119347581Y-67970000D01*
X119380000Y-67973193D01*
X119412419Y-67970000D01*
X119990000Y-67970000D01*
X119990001Y-80620000D01*
X102260000Y-80620000D01*
X102260000Y-80228072D01*
X104990000Y-80228072D01*
X105114482Y-80215812D01*
X105234180Y-80179502D01*
X105344494Y-80120537D01*
X105441185Y-80041185D01*
X105520537Y-79944494D01*
X105579502Y-79834180D01*
X105615812Y-79714482D01*
X105628072Y-79590000D01*
X105628072Y-79575000D01*
X108598982Y-79575000D01*
X108640000Y-79579040D01*
X108681018Y-79575000D01*
X108681019Y-79575000D01*
X108803689Y-79562918D01*
X108961087Y-79515172D01*
X109106146Y-79437636D01*
X109233291Y-79333291D01*
X109259446Y-79301421D01*
X111201427Y-77359441D01*
X111233291Y-77333291D01*
X111337636Y-77206146D01*
X111415172Y-77061087D01*
X111462918Y-76903689D01*
X111475000Y-76781019D01*
X111479040Y-76740001D01*
X111475000Y-76698982D01*
X111475000Y-75510132D01*
X111521612Y-75463520D01*
X111645824Y-75277624D01*
X111731383Y-75071067D01*
X111775000Y-74851788D01*
X111775000Y-74628212D01*
X111731383Y-74408933D01*
X111645824Y-74202376D01*
X111521612Y-74016480D01*
X111363520Y-73858388D01*
X111177624Y-73734176D01*
X110971067Y-73648617D01*
X110751788Y-73605000D01*
X110528212Y-73605000D01*
X110308933Y-73648617D01*
X110102376Y-73734176D01*
X109916480Y-73858388D01*
X109758388Y-74016480D01*
X109634176Y-74202376D01*
X109548617Y-74408933D01*
X109505000Y-74628212D01*
X109505000Y-74851788D01*
X109548617Y-75071067D01*
X109634176Y-75277624D01*
X109758388Y-75463520D01*
X109805000Y-75510132D01*
X109805001Y-76394131D01*
X108294133Y-77905000D01*
X105628072Y-77905000D01*
X105628072Y-77890000D01*
X105615812Y-77765518D01*
X105579502Y-77645820D01*
X105520537Y-77535506D01*
X105466778Y-77470000D01*
X105520537Y-77404494D01*
X105579502Y-77294180D01*
X105615812Y-77174482D01*
X105628072Y-77050000D01*
X105628072Y-75350000D01*
X105615812Y-75225518D01*
X105579502Y-75105820D01*
X105520537Y-74995506D01*
X105441185Y-74898815D01*
X105344494Y-74819463D01*
X105234180Y-74760498D01*
X105114482Y-74724188D01*
X104990000Y-74711928D01*
X102260000Y-74711928D01*
X102260000Y-67342419D01*
X102263193Y-67310000D01*
X102259963Y-67277201D01*
X102318980Y-67245656D01*
X102385960Y-67005565D01*
X101600000Y-66219605D01*
X101585858Y-66233748D01*
X101406253Y-66054143D01*
X101420395Y-66040000D01*
X101779605Y-66040000D01*
X102565565Y-66825960D01*
X102805656Y-66758980D01*
X102922756Y-66509952D01*
X102989023Y-66242865D01*
X103001910Y-65967983D01*
X102960922Y-65695867D01*
X102867636Y-65436977D01*
X102805656Y-65321020D01*
X102565565Y-65254040D01*
X101779605Y-66040000D01*
X101420395Y-66040000D01*
X101406253Y-66025858D01*
X101585858Y-65846253D01*
X101600000Y-65860395D01*
X102385960Y-65074435D01*
X102361867Y-64988072D01*
X104990000Y-64988072D01*
X105114482Y-64975812D01*
X105234180Y-64939502D01*
X105344494Y-64880537D01*
X105441185Y-64801185D01*
X105520537Y-64704494D01*
X105579502Y-64594180D01*
X105615812Y-64474482D01*
X105628072Y-64350000D01*
X105628072Y-63572017D01*
X117978090Y-63572017D01*
X118019078Y-63844133D01*
X118112364Y-64103023D01*
X118174344Y-64218980D01*
X118414435Y-64285960D01*
X119200395Y-63500000D01*
X118414435Y-62714040D01*
X118174344Y-62781020D01*
X118057244Y-63030048D01*
X117990977Y-63297135D01*
X117978090Y-63572017D01*
X105628072Y-63572017D01*
X105628072Y-62650000D01*
X105615812Y-62525518D01*
X105579502Y-62405820D01*
X105520537Y-62295506D01*
X105441185Y-62198815D01*
X105344494Y-62119463D01*
X105234180Y-62060498D01*
X105114482Y-62024188D01*
X104990000Y-62011928D01*
X102260000Y-62011928D01*
X102260000Y-61620000D01*
X118720001Y-61620000D01*
X118720001Y-62197571D01*
%TA.AperFunction,Conductor*%
D16*
G36*
X118720001Y-62197571D02*
G01*
X118716807Y-62230000D01*
X118720037Y-62262799D01*
X118661020Y-62294344D01*
X118594040Y-62534435D01*
X119380000Y-63320395D01*
X119394143Y-63306253D01*
X119573748Y-63485858D01*
X119559605Y-63500000D01*
X119573748Y-63514143D01*
X119394143Y-63693748D01*
X119380000Y-63679605D01*
X118594040Y-64465565D01*
X118661020Y-64705656D01*
X118720394Y-64733576D01*
X118716807Y-64770000D01*
X118720000Y-64802418D01*
X118720001Y-67277571D01*
X118716807Y-67310000D01*
X118729550Y-67439383D01*
X118767290Y-67563793D01*
X118828575Y-67678450D01*
X118911052Y-67778948D01*
X119011550Y-67861425D01*
X119126207Y-67922710D01*
X119250617Y-67960450D01*
X119347581Y-67970000D01*
X119380000Y-67973193D01*
X119412419Y-67970000D01*
X119990000Y-67970000D01*
X119990001Y-80620000D01*
X102260000Y-80620000D01*
X102260000Y-80228072D01*
X104990000Y-80228072D01*
X105114482Y-80215812D01*
X105234180Y-80179502D01*
X105344494Y-80120537D01*
X105441185Y-80041185D01*
X105520537Y-79944494D01*
X105579502Y-79834180D01*
X105615812Y-79714482D01*
X105628072Y-79590000D01*
X105628072Y-79575000D01*
X108598982Y-79575000D01*
X108640000Y-79579040D01*
X108681018Y-79575000D01*
X108681019Y-79575000D01*
X108803689Y-79562918D01*
X108961087Y-79515172D01*
X109106146Y-79437636D01*
X109233291Y-79333291D01*
X109259446Y-79301421D01*
X111201427Y-77359441D01*
X111233291Y-77333291D01*
X111337636Y-77206146D01*
X111415172Y-77061087D01*
X111462918Y-76903689D01*
X111475000Y-76781019D01*
X111479040Y-76740001D01*
X111475000Y-76698982D01*
X111475000Y-75510132D01*
X111521612Y-75463520D01*
X111645824Y-75277624D01*
X111731383Y-75071067D01*
X111775000Y-74851788D01*
X111775000Y-74628212D01*
X111731383Y-74408933D01*
X111645824Y-74202376D01*
X111521612Y-74016480D01*
X111363520Y-73858388D01*
X111177624Y-73734176D01*
X110971067Y-73648617D01*
X110751788Y-73605000D01*
X110528212Y-73605000D01*
X110308933Y-73648617D01*
X110102376Y-73734176D01*
X109916480Y-73858388D01*
X109758388Y-74016480D01*
X109634176Y-74202376D01*
X109548617Y-74408933D01*
X109505000Y-74628212D01*
X109505000Y-74851788D01*
X109548617Y-75071067D01*
X109634176Y-75277624D01*
X109758388Y-75463520D01*
X109805000Y-75510132D01*
X109805001Y-76394131D01*
X108294133Y-77905000D01*
X105628072Y-77905000D01*
X105628072Y-77890000D01*
X105615812Y-77765518D01*
X105579502Y-77645820D01*
X105520537Y-77535506D01*
X105466778Y-77470000D01*
X105520537Y-77404494D01*
X105579502Y-77294180D01*
X105615812Y-77174482D01*
X105628072Y-77050000D01*
X105628072Y-75350000D01*
X105615812Y-75225518D01*
X105579502Y-75105820D01*
X105520537Y-74995506D01*
X105441185Y-74898815D01*
X105344494Y-74819463D01*
X105234180Y-74760498D01*
X105114482Y-74724188D01*
X104990000Y-74711928D01*
X102260000Y-74711928D01*
X102260000Y-67342419D01*
X102263193Y-67310000D01*
X102259963Y-67277201D01*
X102318980Y-67245656D01*
X102385960Y-67005565D01*
X101600000Y-66219605D01*
X101585858Y-66233748D01*
X101406253Y-66054143D01*
X101420395Y-66040000D01*
X101779605Y-66040000D01*
X102565565Y-66825960D01*
X102805656Y-66758980D01*
X102922756Y-66509952D01*
X102989023Y-66242865D01*
X103001910Y-65967983D01*
X102960922Y-65695867D01*
X102867636Y-65436977D01*
X102805656Y-65321020D01*
X102565565Y-65254040D01*
X101779605Y-66040000D01*
X101420395Y-66040000D01*
X101406253Y-66025858D01*
X101585858Y-65846253D01*
X101600000Y-65860395D01*
X102385960Y-65074435D01*
X102361867Y-64988072D01*
X104990000Y-64988072D01*
X105114482Y-64975812D01*
X105234180Y-64939502D01*
X105344494Y-64880537D01*
X105441185Y-64801185D01*
X105520537Y-64704494D01*
X105579502Y-64594180D01*
X105615812Y-64474482D01*
X105628072Y-64350000D01*
X105628072Y-63572017D01*
X117978090Y-63572017D01*
X118019078Y-63844133D01*
X118112364Y-64103023D01*
X118174344Y-64218980D01*
X118414435Y-64285960D01*
X119200395Y-63500000D01*
X118414435Y-62714040D01*
X118174344Y-62781020D01*
X118057244Y-63030048D01*
X117990977Y-63297135D01*
X117978090Y-63572017D01*
X105628072Y-63572017D01*
X105628072Y-62650000D01*
X105615812Y-62525518D01*
X105579502Y-62405820D01*
X105520537Y-62295506D01*
X105441185Y-62198815D01*
X105344494Y-62119463D01*
X105234180Y-62060498D01*
X105114482Y-62024188D01*
X104990000Y-62011928D01*
X102260000Y-62011928D01*
X102260000Y-61620000D01*
X118720001Y-61620000D01*
X118720001Y-62197571D01*
G37*
%TD.AperFunction*%
%TD*%
M02*
