%TF.GenerationSoftware,KiCad,Pcbnew,(5.1.9)-1*%
%TF.CreationDate,2021-05-28T15:44:06+02:00*%
%TF.ProjectId,16_STEP_DOWN,31365f53-5445-4505-9f44-4f574e2e6b69,rev?*%
%TF.SameCoordinates,Original*%
%TF.FileFunction,Paste,Top*%
%TF.FilePolarity,Positive*%
%FSLAX46Y46*%
G04 Gerber Fmt 4.6, Leading zero omitted, Abs format (unit mm)*
G04 Created by KiCad (PCBNEW (5.1.9)-1) date 2021-05-28 15:44:06*
%MOMM*%
%LPD*%
G01*
G04 APERTURE LIST*
%TA.AperFunction,Profile*%
%ADD10C,0.050000*%
%TD*%
%ADD11R,1.100000X1.100000*%
%ADD12R,2.500000X1.500000*%
%ADD13R,0.650000X2.000000*%
G04 APERTURE END LIST*
D10*
X119380000Y-67310000D02*
X120650000Y-67310000D01*
X119380000Y-64770000D02*
X119380000Y-67310000D01*
X120650000Y-64770000D02*
X119380000Y-64770000D01*
X120650000Y-62230000D02*
X120650000Y-64770000D01*
X119380000Y-62230000D02*
X120650000Y-62230000D01*
X119380000Y-60960000D02*
X119380000Y-62230000D01*
X113665000Y-60960000D02*
X119380000Y-60960000D01*
X114935000Y-81280000D02*
X120650000Y-81280000D01*
X101600000Y-62230000D02*
X101600000Y-60960000D01*
X100330000Y-62230000D02*
X101600000Y-62230000D01*
X100330000Y-64770000D02*
X100330000Y-62230000D01*
X101600000Y-67310000D02*
X100330000Y-67310000D01*
X101600000Y-74930000D02*
X101600000Y-67310000D01*
X100330000Y-74930000D02*
X101600000Y-74930000D01*
X120650000Y-67310000D02*
X120650000Y-81280000D01*
X101600000Y-60960000D02*
X113665000Y-60960000D01*
X101600000Y-80010000D02*
X101600000Y-81280000D01*
X100330000Y-80010000D02*
X101600000Y-80010000D01*
X100330000Y-64770000D02*
X100330000Y-67310000D01*
X114935000Y-81280000D02*
X101600000Y-81280000D01*
X100330000Y-80010000D02*
X100330000Y-74930000D01*
%TO.C,C4*%
G36*
G01*
X106430000Y-77795000D02*
X106930000Y-77795000D01*
G75*
G02*
X107155000Y-78020000I0J-225000D01*
G01*
X107155000Y-78470000D01*
G75*
G02*
X106930000Y-78695000I-225000J0D01*
G01*
X106430000Y-78695000D01*
G75*
G02*
X106205000Y-78470000I0J225000D01*
G01*
X106205000Y-78020000D01*
G75*
G02*
X106430000Y-77795000I225000J0D01*
G01*
G37*
G36*
G01*
X106430000Y-76245000D02*
X106930000Y-76245000D01*
G75*
G02*
X107155000Y-76470000I0J-225000D01*
G01*
X107155000Y-76920000D01*
G75*
G02*
X106930000Y-77145000I-225000J0D01*
G01*
X106430000Y-77145000D01*
G75*
G02*
X106205000Y-76920000I0J225000D01*
G01*
X106205000Y-76470000D01*
G75*
G02*
X106430000Y-76245000I225000J0D01*
G01*
G37*
%TD*%
%TO.C,C1*%
G36*
G01*
X113415000Y-74490000D02*
X113415000Y-73990000D01*
G75*
G02*
X113640000Y-73765000I225000J0D01*
G01*
X114090000Y-73765000D01*
G75*
G02*
X114315000Y-73990000I0J-225000D01*
G01*
X114315000Y-74490000D01*
G75*
G02*
X114090000Y-74715000I-225000J0D01*
G01*
X113640000Y-74715000D01*
G75*
G02*
X113415000Y-74490000I0J225000D01*
G01*
G37*
G36*
G01*
X114965000Y-74490000D02*
X114965000Y-73990000D01*
G75*
G02*
X115190000Y-73765000I225000J0D01*
G01*
X115640000Y-73765000D01*
G75*
G02*
X115865000Y-73990000I0J-225000D01*
G01*
X115865000Y-74490000D01*
G75*
G02*
X115640000Y-74715000I-225000J0D01*
G01*
X115190000Y-74715000D01*
G75*
G02*
X114965000Y-74490000I0J225000D01*
G01*
G37*
%TD*%
%TO.C,C2*%
G36*
G01*
X116540000Y-72840001D02*
X116540000Y-70639999D01*
G75*
G02*
X116789999Y-70390000I249999J0D01*
G01*
X117440001Y-70390000D01*
G75*
G02*
X117690000Y-70639999I0J-249999D01*
G01*
X117690000Y-72840001D01*
G75*
G02*
X117440001Y-73090000I-249999J0D01*
G01*
X116789999Y-73090000D01*
G75*
G02*
X116540000Y-72840001I0J249999D01*
G01*
G37*
G36*
G01*
X113590000Y-72840001D02*
X113590000Y-70639999D01*
G75*
G02*
X113839999Y-70390000I249999J0D01*
G01*
X114490001Y-70390000D01*
G75*
G02*
X114740000Y-70639999I0J-249999D01*
G01*
X114740000Y-72840001D01*
G75*
G02*
X114490001Y-73090000I-249999J0D01*
G01*
X113839999Y-73090000D01*
G75*
G02*
X113590000Y-72840001I0J249999D01*
G01*
G37*
%TD*%
%TO.C,C3*%
G36*
G01*
X109465000Y-67490000D02*
X109465000Y-66990000D01*
G75*
G02*
X109690000Y-66765000I225000J0D01*
G01*
X110140000Y-66765000D01*
G75*
G02*
X110365000Y-66990000I0J-225000D01*
G01*
X110365000Y-67490000D01*
G75*
G02*
X110140000Y-67715000I-225000J0D01*
G01*
X109690000Y-67715000D01*
G75*
G02*
X109465000Y-67490000I0J225000D01*
G01*
G37*
G36*
G01*
X107915000Y-67490000D02*
X107915000Y-66990000D01*
G75*
G02*
X108140000Y-66765000I225000J0D01*
G01*
X108590000Y-66765000D01*
G75*
G02*
X108815000Y-66990000I0J-225000D01*
G01*
X108815000Y-67490000D01*
G75*
G02*
X108590000Y-67715000I-225000J0D01*
G01*
X108140000Y-67715000D01*
G75*
G02*
X107915000Y-67490000I0J225000D01*
G01*
G37*
%TD*%
%TO.C,C5*%
G36*
G01*
X108119999Y-75690000D02*
X110320001Y-75690000D01*
G75*
G02*
X110570000Y-75939999I0J-249999D01*
G01*
X110570000Y-76590001D01*
G75*
G02*
X110320001Y-76840000I-249999J0D01*
G01*
X108119999Y-76840000D01*
G75*
G02*
X107870000Y-76590001I0J249999D01*
G01*
X107870000Y-75939999D01*
G75*
G02*
X108119999Y-75690000I249999J0D01*
G01*
G37*
G36*
G01*
X108119999Y-78640000D02*
X110320001Y-78640000D01*
G75*
G02*
X110570000Y-78889999I0J-249999D01*
G01*
X110570000Y-79540001D01*
G75*
G02*
X110320001Y-79790000I-249999J0D01*
G01*
X108119999Y-79790000D01*
G75*
G02*
X107870000Y-79540001I0J249999D01*
G01*
X107870000Y-78889999D01*
G75*
G02*
X108119999Y-78640000I249999J0D01*
G01*
G37*
%TD*%
D11*
%TO.C,D1*%
X112290000Y-63500000D03*
X109490000Y-63500000D03*
%TD*%
%TO.C,D2*%
G36*
G01*
X112396250Y-77965000D02*
X111883750Y-77965000D01*
G75*
G02*
X111665000Y-77746250I0J218750D01*
G01*
X111665000Y-77308750D01*
G75*
G02*
X111883750Y-77090000I218750J0D01*
G01*
X112396250Y-77090000D01*
G75*
G02*
X112615000Y-77308750I0J-218750D01*
G01*
X112615000Y-77746250D01*
G75*
G02*
X112396250Y-77965000I-218750J0D01*
G01*
G37*
G36*
G01*
X112396250Y-76390000D02*
X111883750Y-76390000D01*
G75*
G02*
X111665000Y-76171250I0J218750D01*
G01*
X111665000Y-75733750D01*
G75*
G02*
X111883750Y-75515000I218750J0D01*
G01*
X112396250Y-75515000D01*
G75*
G02*
X112615000Y-75733750I0J-218750D01*
G01*
X112615000Y-76171250D01*
G75*
G02*
X112396250Y-76390000I-218750J0D01*
G01*
G37*
%TD*%
D12*
%TO.C,L1*%
X106140000Y-73590000D03*
X106140000Y-69890000D03*
%TD*%
%TO.C,R1*%
G36*
G01*
X114415000Y-77965000D02*
X113865000Y-77965000D01*
G75*
G02*
X113665000Y-77765000I0J200000D01*
G01*
X113665000Y-77365000D01*
G75*
G02*
X113865000Y-77165000I200000J0D01*
G01*
X114415000Y-77165000D01*
G75*
G02*
X114615000Y-77365000I0J-200000D01*
G01*
X114615000Y-77765000D01*
G75*
G02*
X114415000Y-77965000I-200000J0D01*
G01*
G37*
G36*
G01*
X114415000Y-76315000D02*
X113865000Y-76315000D01*
G75*
G02*
X113665000Y-76115000I0J200000D01*
G01*
X113665000Y-75715000D01*
G75*
G02*
X113865000Y-75515000I200000J0D01*
G01*
X114415000Y-75515000D01*
G75*
G02*
X114615000Y-75715000I0J-200000D01*
G01*
X114615000Y-76115000D01*
G75*
G02*
X114415000Y-76315000I-200000J0D01*
G01*
G37*
%TD*%
D13*
%TO.C,U1*%
X109690000Y-72950000D03*
X110640000Y-72950000D03*
X111590000Y-72950000D03*
X111590000Y-69530000D03*
X110640000Y-69530000D03*
X109690000Y-69530000D03*
%TD*%
M02*
