%TF.GenerationSoftware,KiCad,Pcbnew,(5.1.9)-1*%
%TF.CreationDate,2021-05-28T15:44:06+02:00*%
%TF.ProjectId,16_STEP_DOWN,31365f53-5445-4505-9f44-4f574e2e6b69,rev?*%
%TF.SameCoordinates,Original*%
%TF.FileFunction,Copper,L1,Top*%
%TF.FilePolarity,Positive*%
%FSLAX46Y46*%
G04 Gerber Fmt 4.6, Leading zero omitted, Abs format (unit mm)*
G04 Created by KiCad (PCBNEW (5.1.9)-1) date 2021-05-28 15:44:06*
%MOMM*%
%LPD*%
G01*
G04 APERTURE LIST*
%TA.AperFunction,Profile*%
%ADD10C,0.050000*%
%TD*%
%TA.AperFunction,ComponentPad*%
%ADD11C,1.524000*%
%TD*%
%TA.AperFunction,ComponentPad*%
%ADD12C,0.100000*%
%TD*%
%TA.AperFunction,SMDPad,CuDef*%
%ADD13R,1.100000X1.100000*%
%TD*%
%TA.AperFunction,SMDPad,CuDef*%
%ADD14R,2.500000X1.500000*%
%TD*%
%TA.AperFunction,SMDPad,CuDef*%
%ADD15R,0.650000X2.000000*%
%TD*%
%TA.AperFunction,ViaPad*%
%ADD16C,1.000000*%
%TD*%
%TA.AperFunction,Conductor*%
%ADD17C,0.400000*%
%TD*%
%TA.AperFunction,Conductor*%
%ADD18C,0.254000*%
%TD*%
%TA.AperFunction,Conductor*%
%ADD19C,0.100000*%
%TD*%
G04 APERTURE END LIST*
D10*
X119380000Y-67310000D02*
X120650000Y-67310000D01*
X119380000Y-64770000D02*
X119380000Y-67310000D01*
X120650000Y-64770000D02*
X119380000Y-64770000D01*
X120650000Y-62230000D02*
X120650000Y-64770000D01*
X119380000Y-62230000D02*
X120650000Y-62230000D01*
X119380000Y-60960000D02*
X119380000Y-62230000D01*
X113665000Y-60960000D02*
X119380000Y-60960000D01*
X114935000Y-81280000D02*
X120650000Y-81280000D01*
X101600000Y-62230000D02*
X101600000Y-60960000D01*
X100330000Y-62230000D02*
X101600000Y-62230000D01*
X100330000Y-64770000D02*
X100330000Y-62230000D01*
X101600000Y-67310000D02*
X100330000Y-67310000D01*
X101600000Y-74930000D02*
X101600000Y-67310000D01*
X100330000Y-74930000D02*
X101600000Y-74930000D01*
X120650000Y-67310000D02*
X120650000Y-81280000D01*
X101600000Y-60960000D02*
X113665000Y-60960000D01*
X101600000Y-80010000D02*
X101600000Y-81280000D01*
X100330000Y-80010000D02*
X101600000Y-80010000D01*
X100330000Y-64770000D02*
X100330000Y-67310000D01*
X114935000Y-81280000D02*
X101600000Y-81280000D01*
X100330000Y-80010000D02*
X100330000Y-74930000D01*
D11*
%TO.P,J4,1*%
%TO.N,EN*%
X101600000Y-78740000D03*
%TA.AperFunction,ComponentPad*%
D12*
G36*
X101928132Y-79589917D02*
G01*
X101845251Y-79584703D01*
X101763275Y-79571425D01*
X101682986Y-79550212D01*
X101605149Y-79521265D01*
X101530509Y-79484861D01*
X101459778Y-79441346D01*
X101393631Y-79391138D01*
X101332698Y-79334714D01*
X101277563Y-79272613D01*
X101228750Y-79205429D01*
X101186727Y-79133802D01*
X101151894Y-79058416D01*
X101124583Y-78979990D01*
X101105056Y-78899274D01*
X101093498Y-78817038D01*
X101090021Y-78734066D01*
X101094656Y-78651151D01*
X101107361Y-78569084D01*
X101128013Y-78488648D01*
X101156416Y-78410612D01*
X101192299Y-78335719D01*
X101235318Y-78264686D01*
X101285064Y-78198190D01*
X101341061Y-78136865D01*
X101402775Y-78081297D01*
X101469617Y-78032017D01*
X101540949Y-77989495D01*
X101616090Y-77954136D01*
X101694323Y-77926278D01*
X101774901Y-77906188D01*
X101857055Y-77894057D01*
X101940000Y-77890000D01*
X104990000Y-77890000D01*
X104990000Y-79590000D01*
X101940000Y-79590000D01*
X101928132Y-79589917D01*
G37*
%TD.AperFunction*%
%TD*%
D11*
%TO.P,J1,1*%
%TO.N,GND*%
X101600000Y-66040000D03*
%TA.AperFunction,ComponentPad*%
D12*
G36*
X101928132Y-66889917D02*
G01*
X101845251Y-66884703D01*
X101763275Y-66871425D01*
X101682986Y-66850212D01*
X101605149Y-66821265D01*
X101530509Y-66784861D01*
X101459778Y-66741346D01*
X101393631Y-66691138D01*
X101332698Y-66634714D01*
X101277563Y-66572613D01*
X101228750Y-66505429D01*
X101186727Y-66433802D01*
X101151894Y-66358416D01*
X101124583Y-66279990D01*
X101105056Y-66199274D01*
X101093498Y-66117038D01*
X101090021Y-66034066D01*
X101094656Y-65951151D01*
X101107361Y-65869084D01*
X101128013Y-65788648D01*
X101156416Y-65710612D01*
X101192299Y-65635719D01*
X101235318Y-65564686D01*
X101285064Y-65498190D01*
X101341061Y-65436865D01*
X101402775Y-65381297D01*
X101469617Y-65332017D01*
X101540949Y-65289495D01*
X101616090Y-65254136D01*
X101694323Y-65226278D01*
X101774901Y-65206188D01*
X101857055Y-65194057D01*
X101940000Y-65190000D01*
X104990000Y-65190000D01*
X104990000Y-66890000D01*
X101940000Y-66890000D01*
X101928132Y-66889917D01*
G37*
%TD.AperFunction*%
%TD*%
D11*
%TO.P,J2,1*%
%TO.N,V_BRUT*%
X101600000Y-63500000D03*
%TA.AperFunction,ComponentPad*%
D12*
G36*
X101928132Y-64349917D02*
G01*
X101845251Y-64344703D01*
X101763275Y-64331425D01*
X101682986Y-64310212D01*
X101605149Y-64281265D01*
X101530509Y-64244861D01*
X101459778Y-64201346D01*
X101393631Y-64151138D01*
X101332698Y-64094714D01*
X101277563Y-64032613D01*
X101228750Y-63965429D01*
X101186727Y-63893802D01*
X101151894Y-63818416D01*
X101124583Y-63739990D01*
X101105056Y-63659274D01*
X101093498Y-63577038D01*
X101090021Y-63494066D01*
X101094656Y-63411151D01*
X101107361Y-63329084D01*
X101128013Y-63248648D01*
X101156416Y-63170612D01*
X101192299Y-63095719D01*
X101235318Y-63024686D01*
X101285064Y-62958190D01*
X101341061Y-62896865D01*
X101402775Y-62841297D01*
X101469617Y-62792017D01*
X101540949Y-62749495D01*
X101616090Y-62714136D01*
X101694323Y-62686278D01*
X101774901Y-62666188D01*
X101857055Y-62654057D01*
X101940000Y-62650000D01*
X104990000Y-62650000D01*
X104990000Y-64350000D01*
X101940000Y-64350000D01*
X101928132Y-64349917D01*
G37*
%TD.AperFunction*%
%TD*%
D11*
%TO.P,J3,1*%
%TO.N,5V*%
X101600000Y-76200000D03*
%TA.AperFunction,ComponentPad*%
D12*
G36*
X101928132Y-77049917D02*
G01*
X101845251Y-77044703D01*
X101763275Y-77031425D01*
X101682986Y-77010212D01*
X101605149Y-76981265D01*
X101530509Y-76944861D01*
X101459778Y-76901346D01*
X101393631Y-76851138D01*
X101332698Y-76794714D01*
X101277563Y-76732613D01*
X101228750Y-76665429D01*
X101186727Y-76593802D01*
X101151894Y-76518416D01*
X101124583Y-76439990D01*
X101105056Y-76359274D01*
X101093498Y-76277038D01*
X101090021Y-76194066D01*
X101094656Y-76111151D01*
X101107361Y-76029084D01*
X101128013Y-75948648D01*
X101156416Y-75870612D01*
X101192299Y-75795719D01*
X101235318Y-75724686D01*
X101285064Y-75658190D01*
X101341061Y-75596865D01*
X101402775Y-75541297D01*
X101469617Y-75492017D01*
X101540949Y-75449495D01*
X101616090Y-75414136D01*
X101694323Y-75386278D01*
X101774901Y-75366188D01*
X101857055Y-75354057D01*
X101940000Y-75350000D01*
X104990000Y-75350000D01*
X104990000Y-77050000D01*
X101940000Y-77050000D01*
X101928132Y-77049917D01*
G37*
%TD.AperFunction*%
%TD*%
D11*
%TO.P,J5,1*%
%TO.N,GND*%
X119380000Y-63500000D03*
%TA.AperFunction,ComponentPad*%
D12*
G36*
X119051868Y-62650083D02*
G01*
X119134749Y-62655297D01*
X119216725Y-62668575D01*
X119297014Y-62689788D01*
X119374851Y-62718735D01*
X119449491Y-62755139D01*
X119520222Y-62798654D01*
X119586369Y-62848862D01*
X119647302Y-62905286D01*
X119702437Y-62967387D01*
X119751250Y-63034571D01*
X119793273Y-63106198D01*
X119828106Y-63181584D01*
X119855417Y-63260010D01*
X119874944Y-63340726D01*
X119886502Y-63422962D01*
X119889979Y-63505934D01*
X119885344Y-63588849D01*
X119872639Y-63670916D01*
X119851987Y-63751352D01*
X119823584Y-63829388D01*
X119787701Y-63904281D01*
X119744682Y-63975314D01*
X119694936Y-64041810D01*
X119638939Y-64103135D01*
X119577225Y-64158703D01*
X119510383Y-64207983D01*
X119439051Y-64250505D01*
X119363910Y-64285864D01*
X119285677Y-64313722D01*
X119205099Y-64333812D01*
X119122945Y-64345943D01*
X119040000Y-64350000D01*
X115990000Y-64350000D01*
X115990000Y-62650000D01*
X119040000Y-62650000D01*
X119051868Y-62650083D01*
G37*
%TD.AperFunction*%
%TD*%
%TO.P,C4,2*%
%TO.N,GND*%
%TA.AperFunction,SMDPad,CuDef*%
G36*
G01*
X106430000Y-77795000D02*
X106930000Y-77795000D01*
G75*
G02*
X107155000Y-78020000I0J-225000D01*
G01*
X107155000Y-78470000D01*
G75*
G02*
X106930000Y-78695000I-225000J0D01*
G01*
X106430000Y-78695000D01*
G75*
G02*
X106205000Y-78470000I0J225000D01*
G01*
X106205000Y-78020000D01*
G75*
G02*
X106430000Y-77795000I225000J0D01*
G01*
G37*
%TD.AperFunction*%
%TO.P,C4,1*%
%TO.N,5V*%
%TA.AperFunction,SMDPad,CuDef*%
G36*
G01*
X106430000Y-76245000D02*
X106930000Y-76245000D01*
G75*
G02*
X107155000Y-76470000I0J-225000D01*
G01*
X107155000Y-76920000D01*
G75*
G02*
X106930000Y-77145000I-225000J0D01*
G01*
X106430000Y-77145000D01*
G75*
G02*
X106205000Y-76920000I0J225000D01*
G01*
X106205000Y-76470000D01*
G75*
G02*
X106430000Y-76245000I225000J0D01*
G01*
G37*
%TD.AperFunction*%
%TD*%
%TO.P,C1,1*%
%TO.N,V_BRUT_P*%
%TA.AperFunction,SMDPad,CuDef*%
G36*
G01*
X113415000Y-74490000D02*
X113415000Y-73990000D01*
G75*
G02*
X113640000Y-73765000I225000J0D01*
G01*
X114090000Y-73765000D01*
G75*
G02*
X114315000Y-73990000I0J-225000D01*
G01*
X114315000Y-74490000D01*
G75*
G02*
X114090000Y-74715000I-225000J0D01*
G01*
X113640000Y-74715000D01*
G75*
G02*
X113415000Y-74490000I0J225000D01*
G01*
G37*
%TD.AperFunction*%
%TO.P,C1,2*%
%TO.N,GND*%
%TA.AperFunction,SMDPad,CuDef*%
G36*
G01*
X114965000Y-74490000D02*
X114965000Y-73990000D01*
G75*
G02*
X115190000Y-73765000I225000J0D01*
G01*
X115640000Y-73765000D01*
G75*
G02*
X115865000Y-73990000I0J-225000D01*
G01*
X115865000Y-74490000D01*
G75*
G02*
X115640000Y-74715000I-225000J0D01*
G01*
X115190000Y-74715000D01*
G75*
G02*
X114965000Y-74490000I0J225000D01*
G01*
G37*
%TD.AperFunction*%
%TD*%
%TO.P,C2,2*%
%TO.N,GND*%
%TA.AperFunction,SMDPad,CuDef*%
G36*
G01*
X116540000Y-72840001D02*
X116540000Y-70639999D01*
G75*
G02*
X116789999Y-70390000I249999J0D01*
G01*
X117440001Y-70390000D01*
G75*
G02*
X117690000Y-70639999I0J-249999D01*
G01*
X117690000Y-72840001D01*
G75*
G02*
X117440001Y-73090000I-249999J0D01*
G01*
X116789999Y-73090000D01*
G75*
G02*
X116540000Y-72840001I0J249999D01*
G01*
G37*
%TD.AperFunction*%
%TO.P,C2,1*%
%TO.N,V_BRUT_P*%
%TA.AperFunction,SMDPad,CuDef*%
G36*
G01*
X113590000Y-72840001D02*
X113590000Y-70639999D01*
G75*
G02*
X113839999Y-70390000I249999J0D01*
G01*
X114490001Y-70390000D01*
G75*
G02*
X114740000Y-70639999I0J-249999D01*
G01*
X114740000Y-72840001D01*
G75*
G02*
X114490001Y-73090000I-249999J0D01*
G01*
X113839999Y-73090000D01*
G75*
G02*
X113590000Y-72840001I0J249999D01*
G01*
G37*
%TD.AperFunction*%
%TD*%
%TO.P,C3,2*%
%TO.N,Net-(C3-Pad2)*%
%TA.AperFunction,SMDPad,CuDef*%
G36*
G01*
X109465000Y-67490000D02*
X109465000Y-66990000D01*
G75*
G02*
X109690000Y-66765000I225000J0D01*
G01*
X110140000Y-66765000D01*
G75*
G02*
X110365000Y-66990000I0J-225000D01*
G01*
X110365000Y-67490000D01*
G75*
G02*
X110140000Y-67715000I-225000J0D01*
G01*
X109690000Y-67715000D01*
G75*
G02*
X109465000Y-67490000I0J225000D01*
G01*
G37*
%TD.AperFunction*%
%TO.P,C3,1*%
%TO.N,Net-(C3-Pad1)*%
%TA.AperFunction,SMDPad,CuDef*%
G36*
G01*
X107915000Y-67490000D02*
X107915000Y-66990000D01*
G75*
G02*
X108140000Y-66765000I225000J0D01*
G01*
X108590000Y-66765000D01*
G75*
G02*
X108815000Y-66990000I0J-225000D01*
G01*
X108815000Y-67490000D01*
G75*
G02*
X108590000Y-67715000I-225000J0D01*
G01*
X108140000Y-67715000D01*
G75*
G02*
X107915000Y-67490000I0J225000D01*
G01*
G37*
%TD.AperFunction*%
%TD*%
%TO.P,C5,1*%
%TO.N,5V*%
%TA.AperFunction,SMDPad,CuDef*%
G36*
G01*
X108119999Y-75690000D02*
X110320001Y-75690000D01*
G75*
G02*
X110570000Y-75939999I0J-249999D01*
G01*
X110570000Y-76590001D01*
G75*
G02*
X110320001Y-76840000I-249999J0D01*
G01*
X108119999Y-76840000D01*
G75*
G02*
X107870000Y-76590001I0J249999D01*
G01*
X107870000Y-75939999D01*
G75*
G02*
X108119999Y-75690000I249999J0D01*
G01*
G37*
%TD.AperFunction*%
%TO.P,C5,2*%
%TO.N,GND*%
%TA.AperFunction,SMDPad,CuDef*%
G36*
G01*
X108119999Y-78640000D02*
X110320001Y-78640000D01*
G75*
G02*
X110570000Y-78889999I0J-249999D01*
G01*
X110570000Y-79540001D01*
G75*
G02*
X110320001Y-79790000I-249999J0D01*
G01*
X108119999Y-79790000D01*
G75*
G02*
X107870000Y-79540001I0J249999D01*
G01*
X107870000Y-78889999D01*
G75*
G02*
X108119999Y-78640000I249999J0D01*
G01*
G37*
%TD.AperFunction*%
%TD*%
D13*
%TO.P,D1,1*%
%TO.N,V_BRUT_P*%
X112290000Y-63500000D03*
%TO.P,D1,2*%
%TO.N,V_BRUT*%
X109490000Y-63500000D03*
%TD*%
%TO.P,D2,1*%
%TO.N,Net-(D2-Pad1)*%
%TA.AperFunction,SMDPad,CuDef*%
G36*
G01*
X112396250Y-77965000D02*
X111883750Y-77965000D01*
G75*
G02*
X111665000Y-77746250I0J218750D01*
G01*
X111665000Y-77308750D01*
G75*
G02*
X111883750Y-77090000I218750J0D01*
G01*
X112396250Y-77090000D01*
G75*
G02*
X112615000Y-77308750I0J-218750D01*
G01*
X112615000Y-77746250D01*
G75*
G02*
X112396250Y-77965000I-218750J0D01*
G01*
G37*
%TD.AperFunction*%
%TO.P,D2,2*%
%TO.N,5V*%
%TA.AperFunction,SMDPad,CuDef*%
G36*
G01*
X112396250Y-76390000D02*
X111883750Y-76390000D01*
G75*
G02*
X111665000Y-76171250I0J218750D01*
G01*
X111665000Y-75733750D01*
G75*
G02*
X111883750Y-75515000I218750J0D01*
G01*
X112396250Y-75515000D01*
G75*
G02*
X112615000Y-75733750I0J-218750D01*
G01*
X112615000Y-76171250D01*
G75*
G02*
X112396250Y-76390000I-218750J0D01*
G01*
G37*
%TD.AperFunction*%
%TD*%
D14*
%TO.P,L1,1*%
%TO.N,5V*%
X106140000Y-73590000D03*
%TO.P,L1,2*%
%TO.N,Net-(C3-Pad2)*%
X106140000Y-69890000D03*
%TD*%
%TO.P,R1,1*%
%TO.N,Net-(D2-Pad1)*%
%TA.AperFunction,SMDPad,CuDef*%
G36*
G01*
X114415000Y-77965000D02*
X113865000Y-77965000D01*
G75*
G02*
X113665000Y-77765000I0J200000D01*
G01*
X113665000Y-77365000D01*
G75*
G02*
X113865000Y-77165000I200000J0D01*
G01*
X114415000Y-77165000D01*
G75*
G02*
X114615000Y-77365000I0J-200000D01*
G01*
X114615000Y-77765000D01*
G75*
G02*
X114415000Y-77965000I-200000J0D01*
G01*
G37*
%TD.AperFunction*%
%TO.P,R1,2*%
%TO.N,GND*%
%TA.AperFunction,SMDPad,CuDef*%
G36*
G01*
X114415000Y-76315000D02*
X113865000Y-76315000D01*
G75*
G02*
X113665000Y-76115000I0J200000D01*
G01*
X113665000Y-75715000D01*
G75*
G02*
X113865000Y-75515000I200000J0D01*
G01*
X114415000Y-75515000D01*
G75*
G02*
X114615000Y-75715000I0J-200000D01*
G01*
X114615000Y-76115000D01*
G75*
G02*
X114415000Y-76315000I-200000J0D01*
G01*
G37*
%TD.AperFunction*%
%TD*%
D15*
%TO.P,U1,1*%
%TO.N,5V*%
X109690000Y-72950000D03*
%TO.P,U1,2*%
%TO.N,EN*%
X110640000Y-72950000D03*
%TO.P,U1,3*%
%TO.N,V_BRUT_P*%
X111590000Y-72950000D03*
%TO.P,U1,4*%
%TO.N,GND*%
X111590000Y-69530000D03*
%TO.P,U1,5*%
%TO.N,Net-(C3-Pad2)*%
X110640000Y-69530000D03*
%TO.P,U1,6*%
%TO.N,Net-(C3-Pad1)*%
X109690000Y-69530000D03*
%TD*%
D16*
%TO.N,GND*%
X112395000Y-66675000D03*
X106640000Y-80010000D03*
X118110000Y-76200000D03*
X112395000Y-67945000D03*
X112395000Y-65405000D03*
X116840000Y-74740000D03*
X119380000Y-72390000D03*
X111760000Y-80010000D03*
X114300000Y-80010000D03*
X116840000Y-80010000D03*
X119380000Y-80010000D03*
X116840000Y-77470000D03*
X115570000Y-76200000D03*
X118110000Y-73660000D03*
X119380000Y-74930000D03*
X119380000Y-77470000D03*
X119380000Y-69850000D03*
X118110000Y-68580000D03*
X118110000Y-66040000D03*
X102870000Y-68580000D03*
X102870000Y-71120000D03*
X102870000Y-73660000D03*
%TO.N,EN*%
X110640000Y-74740000D03*
%TD*%
D17*
%TO.N,GND*%
X106680000Y-78245000D02*
X106680000Y-79700000D01*
X106680000Y-79700000D02*
X106640000Y-79740000D01*
X106640000Y-79740000D02*
X106640000Y-80240000D01*
X106640000Y-80240000D02*
X109140000Y-80240000D01*
X109140000Y-79295000D02*
X109220000Y-79215000D01*
X109140000Y-80240000D02*
X109140000Y-79295000D01*
X118730000Y-71740000D02*
X119380000Y-72390000D01*
X117115000Y-71740000D02*
X118730000Y-71740000D01*
X116340000Y-74240000D02*
X116840000Y-74740000D01*
X115415000Y-74240000D02*
X116340000Y-74240000D01*
X115285000Y-75915000D02*
X115570000Y-76200000D01*
X114140000Y-75915000D02*
X115285000Y-75915000D01*
X111590000Y-67480000D02*
X112395000Y-66675000D01*
X111590000Y-69530000D02*
X111590000Y-67480000D01*
X112395000Y-67310000D02*
X112395000Y-66675000D01*
X112395000Y-67945000D02*
X112395000Y-67310000D01*
%TO.N,5V*%
X109690000Y-75795000D02*
X109220000Y-76265000D01*
X109532500Y-75952500D02*
X109220000Y-76265000D01*
X112140000Y-75952500D02*
X109532500Y-75952500D01*
X106680000Y-76695000D02*
X106680000Y-75700000D01*
X107190000Y-75190000D02*
X109690000Y-75190000D01*
X106680000Y-75700000D02*
X107190000Y-75190000D01*
X109690000Y-75190000D02*
X109690000Y-75795000D01*
X109690000Y-72950000D02*
X109690000Y-75190000D01*
X106140000Y-74140000D02*
X107190000Y-75190000D01*
X106140000Y-73590000D02*
X106140000Y-74140000D01*
X106180000Y-76200000D02*
X106680000Y-75700000D01*
X104140000Y-76200000D02*
X106180000Y-76200000D01*
%TO.N,V_BRUT*%
X109490000Y-63500000D02*
X104140000Y-63500000D01*
%TO.N,V_BRUT_P*%
X111590000Y-72950000D02*
X111590000Y-74190000D01*
X111640000Y-74240000D02*
X111590000Y-74190000D01*
X112640000Y-72240000D02*
X112640000Y-74240000D01*
X112640000Y-74240000D02*
X111640000Y-74240000D01*
X113865000Y-74240000D02*
X112640000Y-74240000D01*
X113140000Y-71740000D02*
X112640000Y-72240000D01*
X114165000Y-71740000D02*
X113140000Y-71740000D01*
X114140000Y-71715000D02*
X114165000Y-71740000D01*
X115140000Y-68740000D02*
X114140000Y-69740000D01*
X115140000Y-66740000D02*
X115140000Y-68740000D01*
X114140000Y-69740000D02*
X114140000Y-71715000D01*
X112290000Y-63500000D02*
X113700000Y-63500000D01*
X113790000Y-63590000D02*
X113790000Y-65390000D01*
X113700000Y-63500000D02*
X113790000Y-63590000D01*
X113790000Y-65390000D02*
X115140000Y-66740000D01*
%TO.N,Net-(C3-Pad2)*%
X110640000Y-69530000D02*
X110640000Y-67460000D01*
X110420000Y-67240000D02*
X109915000Y-67240000D01*
X110640000Y-67460000D02*
X110420000Y-67240000D01*
X110640000Y-66040000D02*
X110640000Y-67460000D01*
X110340000Y-65740000D02*
X110640000Y-66040000D01*
X106940000Y-65740000D02*
X110340000Y-65740000D01*
X106140000Y-66540000D02*
X106940000Y-65740000D01*
X106140000Y-69890000D02*
X106140000Y-66540000D01*
%TO.N,Net-(C3-Pad1)*%
X109690000Y-68390000D02*
X109690000Y-69530000D01*
X109565000Y-68265000D02*
X109690000Y-68390000D01*
X108665000Y-68265000D02*
X108365000Y-67965000D01*
X108365000Y-67965000D02*
X108365000Y-67240000D01*
X108665000Y-68265000D02*
X109565000Y-68265000D01*
%TO.N,Net-(D2-Pad1)*%
X112140000Y-77527500D02*
X112140000Y-77740000D01*
X114140000Y-77565000D02*
X114140000Y-78240000D01*
X114140000Y-78240000D02*
X113640000Y-78740000D01*
X113640000Y-78740000D02*
X112640000Y-78740000D01*
X112640000Y-78740000D02*
X112140000Y-78240000D01*
X112140000Y-78240000D02*
X112140000Y-77527500D01*
%TO.N,EN*%
X110640000Y-72950000D02*
X110640000Y-74740000D01*
%TD*%
D18*
%TO.N,V_BRUT*%
X109093000Y-64008000D02*
X104267000Y-64008000D01*
X104267000Y-62992000D01*
X109093000Y-62992000D01*
X109093000Y-64008000D01*
%TA.AperFunction,Conductor*%
D19*
G36*
X109093000Y-64008000D02*
G01*
X104267000Y-64008000D01*
X104267000Y-62992000D01*
X109093000Y-62992000D01*
X109093000Y-64008000D01*
G37*
%TD.AperFunction*%
%TD*%
D18*
%TO.N,V_BRUT_P*%
X114808000Y-63552606D02*
X114808000Y-64135000D01*
X114810440Y-64159776D01*
X114817667Y-64183601D01*
X114829403Y-64205557D01*
X114845197Y-64224803D01*
X116078000Y-65457606D01*
X116078000Y-68527394D01*
X114210197Y-70395197D01*
X114194403Y-70414443D01*
X114182667Y-70436399D01*
X114175440Y-70460224D01*
X114173000Y-70485000D01*
X114173000Y-72972394D01*
X113575197Y-73570197D01*
X113559403Y-73589443D01*
X113547667Y-73611399D01*
X113540440Y-73635224D01*
X113538000Y-73660000D01*
X113538000Y-74168000D01*
X111887000Y-74168000D01*
X111887000Y-71788892D01*
X112337745Y-71004525D01*
X112366185Y-70981185D01*
X112445537Y-70884494D01*
X112504502Y-70774180D01*
X112540812Y-70654482D01*
X112541207Y-70650468D01*
X113775113Y-68503278D01*
X113785342Y-68480580D01*
X113790947Y-68456323D01*
X113792000Y-68440000D01*
X113792000Y-64840000D01*
X113789560Y-64815224D01*
X113782333Y-64791399D01*
X113770597Y-64769443D01*
X113754803Y-64750197D01*
X113726640Y-64728961D01*
X112522000Y-64060244D01*
X112522000Y-62992000D01*
X114247394Y-62992000D01*
X114808000Y-63552606D01*
%TA.AperFunction,Conductor*%
D19*
G36*
X114808000Y-63552606D02*
G01*
X114808000Y-64135000D01*
X114810440Y-64159776D01*
X114817667Y-64183601D01*
X114829403Y-64205557D01*
X114845197Y-64224803D01*
X116078000Y-65457606D01*
X116078000Y-68527394D01*
X114210197Y-70395197D01*
X114194403Y-70414443D01*
X114182667Y-70436399D01*
X114175440Y-70460224D01*
X114173000Y-70485000D01*
X114173000Y-72972394D01*
X113575197Y-73570197D01*
X113559403Y-73589443D01*
X113547667Y-73611399D01*
X113540440Y-73635224D01*
X113538000Y-73660000D01*
X113538000Y-74168000D01*
X111887000Y-74168000D01*
X111887000Y-71788892D01*
X112337745Y-71004525D01*
X112366185Y-70981185D01*
X112445537Y-70884494D01*
X112504502Y-70774180D01*
X112540812Y-70654482D01*
X112541207Y-70650468D01*
X113775113Y-68503278D01*
X113785342Y-68480580D01*
X113790947Y-68456323D01*
X113792000Y-68440000D01*
X113792000Y-64840000D01*
X113789560Y-64815224D01*
X113782333Y-64791399D01*
X113770597Y-64769443D01*
X113754803Y-64750197D01*
X113726640Y-64728961D01*
X112522000Y-64060244D01*
X112522000Y-62992000D01*
X114247394Y-62992000D01*
X114808000Y-63552606D01*
G37*
%TD.AperFunction*%
%TD*%
D18*
%TO.N,Net-(C3-Pad2)*%
X110813000Y-66061834D02*
X110813000Y-67164940D01*
X110767082Y-67316312D01*
X110750960Y-67480000D01*
X110755001Y-67521028D01*
X110755001Y-68150481D01*
X110734463Y-68175506D01*
X110675498Y-68285820D01*
X110640000Y-68402841D01*
X110604502Y-68285820D01*
X110545537Y-68175506D01*
X110469343Y-68082663D01*
X110465172Y-68068913D01*
X110387636Y-67923854D01*
X110283291Y-67796709D01*
X110251426Y-67770558D01*
X110184444Y-67703577D01*
X110158291Y-67671709D01*
X110031146Y-67567364D01*
X109982000Y-67541095D01*
X109982000Y-66675000D01*
X109979560Y-66650224D01*
X109972333Y-66626399D01*
X109960597Y-66604443D01*
X109944803Y-66585197D01*
X109309803Y-65950197D01*
X109290557Y-65934403D01*
X109268601Y-65922667D01*
X109244776Y-65915440D01*
X109220000Y-65913000D01*
X107950000Y-65913000D01*
X107925224Y-65915440D01*
X107901399Y-65922667D01*
X107879443Y-65934403D01*
X107860197Y-65950197D01*
X107225197Y-66585197D01*
X107209403Y-66604443D01*
X107197667Y-66626399D01*
X107190440Y-66650224D01*
X107188000Y-66675000D01*
X107188000Y-69723000D01*
X104902000Y-69723000D01*
X104902000Y-67997606D01*
X105499803Y-67399803D01*
X105515597Y-67380557D01*
X105527333Y-67358601D01*
X105534560Y-67334776D01*
X105537000Y-67310000D01*
X105537000Y-67213694D01*
X105579502Y-67134180D01*
X105615812Y-67014482D01*
X105628072Y-66890000D01*
X105628072Y-66576844D01*
X106747968Y-64897000D01*
X110400264Y-64897000D01*
X110813000Y-66061834D01*
%TA.AperFunction,Conductor*%
D19*
G36*
X110813000Y-66061834D02*
G01*
X110813000Y-67164940D01*
X110767082Y-67316312D01*
X110750960Y-67480000D01*
X110755001Y-67521028D01*
X110755001Y-68150481D01*
X110734463Y-68175506D01*
X110675498Y-68285820D01*
X110640000Y-68402841D01*
X110604502Y-68285820D01*
X110545537Y-68175506D01*
X110469343Y-68082663D01*
X110465172Y-68068913D01*
X110387636Y-67923854D01*
X110283291Y-67796709D01*
X110251426Y-67770558D01*
X110184444Y-67703577D01*
X110158291Y-67671709D01*
X110031146Y-67567364D01*
X109982000Y-67541095D01*
X109982000Y-66675000D01*
X109979560Y-66650224D01*
X109972333Y-66626399D01*
X109960597Y-66604443D01*
X109944803Y-66585197D01*
X109309803Y-65950197D01*
X109290557Y-65934403D01*
X109268601Y-65922667D01*
X109244776Y-65915440D01*
X109220000Y-65913000D01*
X107950000Y-65913000D01*
X107925224Y-65915440D01*
X107901399Y-65922667D01*
X107879443Y-65934403D01*
X107860197Y-65950197D01*
X107225197Y-66585197D01*
X107209403Y-66604443D01*
X107197667Y-66626399D01*
X107190440Y-66650224D01*
X107188000Y-66675000D01*
X107188000Y-69723000D01*
X104902000Y-69723000D01*
X104902000Y-67997606D01*
X105499803Y-67399803D01*
X105515597Y-67380557D01*
X105527333Y-67358601D01*
X105534560Y-67334776D01*
X105537000Y-67310000D01*
X105537000Y-67213694D01*
X105579502Y-67134180D01*
X105615812Y-67014482D01*
X105628072Y-66890000D01*
X105628072Y-66576844D01*
X106747968Y-64897000D01*
X110400264Y-64897000D01*
X110813000Y-66061834D01*
G37*
%TD.AperFunction*%
%TD*%
D18*
%TO.N,5V*%
X109676928Y-73950000D02*
X109689188Y-74074482D01*
X109698694Y-74105818D01*
X109634176Y-74202376D01*
X109548617Y-74408933D01*
X109505000Y-74628212D01*
X109505000Y-74851788D01*
X109548617Y-75071067D01*
X109634176Y-75277624D01*
X109728000Y-75418041D01*
X109728000Y-76073000D01*
X107950000Y-76073000D01*
X107925224Y-76075440D01*
X107901399Y-76082667D01*
X107879443Y-76094403D01*
X107860197Y-76110197D01*
X107262394Y-76708000D01*
X106045000Y-76708000D01*
X106020224Y-76710440D01*
X105996399Y-76717667D01*
X105974443Y-76729403D01*
X105955197Y-76745197D01*
X105357394Y-77343000D01*
X105313694Y-77343000D01*
X105234180Y-77300498D01*
X105114482Y-77264188D01*
X104990000Y-77251928D01*
X104267000Y-77251928D01*
X104267000Y-73787000D01*
X109676928Y-73787000D01*
X109676928Y-73950000D01*
%TA.AperFunction,Conductor*%
D19*
G36*
X109676928Y-73950000D02*
G01*
X109689188Y-74074482D01*
X109698694Y-74105818D01*
X109634176Y-74202376D01*
X109548617Y-74408933D01*
X109505000Y-74628212D01*
X109505000Y-74851788D01*
X109548617Y-75071067D01*
X109634176Y-75277624D01*
X109728000Y-75418041D01*
X109728000Y-76073000D01*
X107950000Y-76073000D01*
X107925224Y-76075440D01*
X107901399Y-76082667D01*
X107879443Y-76094403D01*
X107860197Y-76110197D01*
X107262394Y-76708000D01*
X106045000Y-76708000D01*
X106020224Y-76710440D01*
X105996399Y-76717667D01*
X105974443Y-76729403D01*
X105955197Y-76745197D01*
X105357394Y-77343000D01*
X105313694Y-77343000D01*
X105234180Y-77300498D01*
X105114482Y-77264188D01*
X104990000Y-77251928D01*
X104267000Y-77251928D01*
X104267000Y-73787000D01*
X109676928Y-73787000D01*
X109676928Y-73950000D01*
G37*
%TD.AperFunction*%
%TD*%
D18*
%TO.N,GND*%
X118729550Y-67439383D02*
X118767290Y-67563793D01*
X118828575Y-67678450D01*
X118911052Y-67778948D01*
X119011550Y-67861425D01*
X119126207Y-67922710D01*
X119250617Y-67960450D01*
X119347581Y-67970000D01*
X119380000Y-67973193D01*
X119412419Y-67970000D01*
X119990000Y-67970000D01*
X119990001Y-80620000D01*
X106172000Y-80620000D01*
X106172000Y-78232000D01*
X111125000Y-78232000D01*
X111149776Y-78229560D01*
X111171820Y-78222873D01*
X111277885Y-78352115D01*
X111315003Y-78382576D01*
X111317082Y-78403688D01*
X111364828Y-78561086D01*
X111442364Y-78706145D01*
X111546709Y-78833291D01*
X111578578Y-78859445D01*
X112020558Y-79301426D01*
X112046709Y-79333291D01*
X112173854Y-79437636D01*
X112318913Y-79515172D01*
X112476311Y-79562918D01*
X112598981Y-79575000D01*
X112598982Y-79575000D01*
X112640000Y-79579040D01*
X112681018Y-79575000D01*
X113598982Y-79575000D01*
X113640000Y-79579040D01*
X113681018Y-79575000D01*
X113681019Y-79575000D01*
X113803689Y-79562918D01*
X113961087Y-79515172D01*
X114106146Y-79437636D01*
X114233291Y-79333291D01*
X114259445Y-79301422D01*
X114701426Y-78859442D01*
X114733291Y-78833291D01*
X114837636Y-78706146D01*
X114915172Y-78561087D01*
X114962918Y-78403689D01*
X114963926Y-78393453D01*
X115007606Y-78357606D01*
X115111831Y-78230608D01*
X115189278Y-78085716D01*
X115236969Y-77928500D01*
X115253072Y-77765000D01*
X115253072Y-77365000D01*
X115236969Y-77201500D01*
X115189278Y-77044284D01*
X115111831Y-76899392D01*
X115007606Y-76772394D01*
X114880608Y-76668169D01*
X114735716Y-76590722D01*
X114578500Y-76543031D01*
X114415000Y-76526928D01*
X113865000Y-76526928D01*
X113701500Y-76543031D01*
X113544284Y-76590722D01*
X113399392Y-76668169D01*
X113272394Y-76772394D01*
X113168169Y-76899392D01*
X113156237Y-76921715D01*
X113108671Y-76832725D01*
X113032574Y-76740000D01*
X113108671Y-76647275D01*
X113187850Y-76499142D01*
X113236608Y-76338408D01*
X113253072Y-76171250D01*
X113253072Y-75733750D01*
X113236608Y-75566592D01*
X113187850Y-75405858D01*
X113108671Y-75257725D01*
X113002115Y-75127885D01*
X112937674Y-75075000D01*
X113008966Y-75075000D01*
X113029716Y-75100284D01*
X113160503Y-75207618D01*
X113309717Y-75287375D01*
X113471623Y-75336488D01*
X113640000Y-75353072D01*
X114090000Y-75353072D01*
X114258377Y-75336488D01*
X114420283Y-75287375D01*
X114569497Y-75207618D01*
X114700284Y-75100284D01*
X114735806Y-75057000D01*
X115570000Y-75057000D01*
X115594776Y-75054560D01*
X115618601Y-75047333D01*
X115640557Y-75035597D01*
X115659803Y-75019803D01*
X115675597Y-75000557D01*
X115687333Y-74978601D01*
X115694560Y-74954776D01*
X115697000Y-74930000D01*
X115697000Y-73787000D01*
X116840000Y-73787000D01*
X116864776Y-73784560D01*
X116888601Y-73777333D01*
X116910557Y-73765597D01*
X116929803Y-73749803D01*
X116945597Y-73730557D01*
X116957333Y-73708601D01*
X116964560Y-73684776D01*
X116967000Y-73660000D01*
X116967000Y-67437000D01*
X118729315Y-67437000D01*
X118729550Y-67439383D01*
%TA.AperFunction,Conductor*%
D19*
G36*
X118729550Y-67439383D02*
G01*
X118767290Y-67563793D01*
X118828575Y-67678450D01*
X118911052Y-67778948D01*
X119011550Y-67861425D01*
X119126207Y-67922710D01*
X119250617Y-67960450D01*
X119347581Y-67970000D01*
X119380000Y-67973193D01*
X119412419Y-67970000D01*
X119990000Y-67970000D01*
X119990001Y-80620000D01*
X106172000Y-80620000D01*
X106172000Y-78232000D01*
X111125000Y-78232000D01*
X111149776Y-78229560D01*
X111171820Y-78222873D01*
X111277885Y-78352115D01*
X111315003Y-78382576D01*
X111317082Y-78403688D01*
X111364828Y-78561086D01*
X111442364Y-78706145D01*
X111546709Y-78833291D01*
X111578578Y-78859445D01*
X112020558Y-79301426D01*
X112046709Y-79333291D01*
X112173854Y-79437636D01*
X112318913Y-79515172D01*
X112476311Y-79562918D01*
X112598981Y-79575000D01*
X112598982Y-79575000D01*
X112640000Y-79579040D01*
X112681018Y-79575000D01*
X113598982Y-79575000D01*
X113640000Y-79579040D01*
X113681018Y-79575000D01*
X113681019Y-79575000D01*
X113803689Y-79562918D01*
X113961087Y-79515172D01*
X114106146Y-79437636D01*
X114233291Y-79333291D01*
X114259445Y-79301422D01*
X114701426Y-78859442D01*
X114733291Y-78833291D01*
X114837636Y-78706146D01*
X114915172Y-78561087D01*
X114962918Y-78403689D01*
X114963926Y-78393453D01*
X115007606Y-78357606D01*
X115111831Y-78230608D01*
X115189278Y-78085716D01*
X115236969Y-77928500D01*
X115253072Y-77765000D01*
X115253072Y-77365000D01*
X115236969Y-77201500D01*
X115189278Y-77044284D01*
X115111831Y-76899392D01*
X115007606Y-76772394D01*
X114880608Y-76668169D01*
X114735716Y-76590722D01*
X114578500Y-76543031D01*
X114415000Y-76526928D01*
X113865000Y-76526928D01*
X113701500Y-76543031D01*
X113544284Y-76590722D01*
X113399392Y-76668169D01*
X113272394Y-76772394D01*
X113168169Y-76899392D01*
X113156237Y-76921715D01*
X113108671Y-76832725D01*
X113032574Y-76740000D01*
X113108671Y-76647275D01*
X113187850Y-76499142D01*
X113236608Y-76338408D01*
X113253072Y-76171250D01*
X113253072Y-75733750D01*
X113236608Y-75566592D01*
X113187850Y-75405858D01*
X113108671Y-75257725D01*
X113002115Y-75127885D01*
X112937674Y-75075000D01*
X113008966Y-75075000D01*
X113029716Y-75100284D01*
X113160503Y-75207618D01*
X113309717Y-75287375D01*
X113471623Y-75336488D01*
X113640000Y-75353072D01*
X114090000Y-75353072D01*
X114258377Y-75336488D01*
X114420283Y-75287375D01*
X114569497Y-75207618D01*
X114700284Y-75100284D01*
X114735806Y-75057000D01*
X115570000Y-75057000D01*
X115594776Y-75054560D01*
X115618601Y-75047333D01*
X115640557Y-75035597D01*
X115659803Y-75019803D01*
X115675597Y-75000557D01*
X115687333Y-74978601D01*
X115694560Y-74954776D01*
X115697000Y-74930000D01*
X115697000Y-73787000D01*
X116840000Y-73787000D01*
X116864776Y-73784560D01*
X116888601Y-73777333D01*
X116910557Y-73765597D01*
X116929803Y-73749803D01*
X116945597Y-73730557D01*
X116957333Y-73708601D01*
X116964560Y-73684776D01*
X116967000Y-73660000D01*
X116967000Y-67437000D01*
X118729315Y-67437000D01*
X118729550Y-67439383D01*
G37*
%TD.AperFunction*%
%TD*%
D18*
%TO.N,GND*%
X118720001Y-62197571D02*
X118716807Y-62230000D01*
X118729550Y-62359383D01*
X118767290Y-62483793D01*
X118828575Y-62598450D01*
X118911052Y-62698948D01*
X119011550Y-62781425D01*
X119126207Y-62842710D01*
X119250617Y-62880450D01*
X119347581Y-62890000D01*
X119380000Y-62893193D01*
X119412419Y-62890000D01*
X119990000Y-62890000D01*
X119990001Y-64110000D01*
X119412419Y-64110000D01*
X119380000Y-64106807D01*
X119347581Y-64110000D01*
X119250617Y-64119550D01*
X119126207Y-64157290D01*
X119011550Y-64218575D01*
X118911052Y-64301052D01*
X118828575Y-64401550D01*
X118767290Y-64516207D01*
X118729550Y-64640617D01*
X118716807Y-64770000D01*
X118720000Y-64802419D01*
X118720001Y-67277571D01*
X118716807Y-67310000D01*
X118729550Y-67439383D01*
X118767290Y-67563793D01*
X118828575Y-67678450D01*
X118911052Y-67778948D01*
X118958637Y-67818000D01*
X116967000Y-67818000D01*
X116967000Y-64770000D01*
X116964560Y-64745224D01*
X116957333Y-64721399D01*
X116941600Y-64693800D01*
X115062000Y-62187667D01*
X115062000Y-61620000D01*
X118720001Y-61620000D01*
X118720001Y-62197571D01*
%TA.AperFunction,Conductor*%
D19*
G36*
X118720001Y-62197571D02*
G01*
X118716807Y-62230000D01*
X118729550Y-62359383D01*
X118767290Y-62483793D01*
X118828575Y-62598450D01*
X118911052Y-62698948D01*
X119011550Y-62781425D01*
X119126207Y-62842710D01*
X119250617Y-62880450D01*
X119347581Y-62890000D01*
X119380000Y-62893193D01*
X119412419Y-62890000D01*
X119990000Y-62890000D01*
X119990001Y-64110000D01*
X119412419Y-64110000D01*
X119380000Y-64106807D01*
X119347581Y-64110000D01*
X119250617Y-64119550D01*
X119126207Y-64157290D01*
X119011550Y-64218575D01*
X118911052Y-64301052D01*
X118828575Y-64401550D01*
X118767290Y-64516207D01*
X118729550Y-64640617D01*
X118716807Y-64770000D01*
X118720000Y-64802419D01*
X118720001Y-67277571D01*
X118716807Y-67310000D01*
X118729550Y-67439383D01*
X118767290Y-67563793D01*
X118828575Y-67678450D01*
X118911052Y-67778948D01*
X118958637Y-67818000D01*
X116967000Y-67818000D01*
X116967000Y-64770000D01*
X116964560Y-64745224D01*
X116957333Y-64721399D01*
X116941600Y-64693800D01*
X115062000Y-62187667D01*
X115062000Y-61620000D01*
X118720001Y-61620000D01*
X118720001Y-62197571D01*
G37*
%TD.AperFunction*%
%TD*%
D18*
%TO.N,GND*%
X115443000Y-62103000D02*
X105313694Y-62103000D01*
X105234180Y-62060498D01*
X105114482Y-62024188D01*
X104990000Y-62011928D01*
X102260000Y-62011928D01*
X102260000Y-61620000D01*
X115443000Y-61620000D01*
X115443000Y-62103000D01*
%TA.AperFunction,Conductor*%
D19*
G36*
X115443000Y-62103000D02*
G01*
X105313694Y-62103000D01*
X105234180Y-62060498D01*
X105114482Y-62024188D01*
X104990000Y-62011928D01*
X102260000Y-62011928D01*
X102260000Y-61620000D01*
X115443000Y-61620000D01*
X115443000Y-62103000D01*
G37*
%TD.AperFunction*%
%TD*%
D18*
%TO.N,GND*%
X101570343Y-64939630D02*
X101692149Y-64965520D01*
X101857006Y-64984012D01*
X101923670Y-64987973D01*
X101935538Y-64988056D01*
X101940000Y-64988072D01*
X104648000Y-64988072D01*
X104648000Y-66775997D01*
X104064445Y-67207920D01*
X104050197Y-67220197D01*
X103415197Y-67855197D01*
X103399403Y-67874443D01*
X103387667Y-67896399D01*
X103380440Y-67920224D01*
X103378000Y-67945000D01*
X103378000Y-74711928D01*
X102260000Y-74711928D01*
X102260000Y-67342419D01*
X102263193Y-67310000D01*
X102250450Y-67180617D01*
X102212710Y-67056207D01*
X102151425Y-66941550D01*
X102068948Y-66841052D01*
X101968450Y-66758575D01*
X101853793Y-66697290D01*
X101729383Y-66659550D01*
X101632419Y-66650000D01*
X101600000Y-66646807D01*
X101567581Y-66650000D01*
X100990000Y-66650000D01*
X100990000Y-64897000D01*
X101435955Y-64897000D01*
X101570343Y-64939630D01*
%TA.AperFunction,Conductor*%
D19*
G36*
X101570343Y-64939630D02*
G01*
X101692149Y-64965520D01*
X101857006Y-64984012D01*
X101923670Y-64987973D01*
X101935538Y-64988056D01*
X101940000Y-64988072D01*
X104648000Y-64988072D01*
X104648000Y-66775997D01*
X104064445Y-67207920D01*
X104050197Y-67220197D01*
X103415197Y-67855197D01*
X103399403Y-67874443D01*
X103387667Y-67896399D01*
X103380440Y-67920224D01*
X103378000Y-67945000D01*
X103378000Y-74711928D01*
X102260000Y-74711928D01*
X102260000Y-67342419D01*
X102263193Y-67310000D01*
X102250450Y-67180617D01*
X102212710Y-67056207D01*
X102151425Y-66941550D01*
X102068948Y-66841052D01*
X101968450Y-66758575D01*
X101853793Y-66697290D01*
X101729383Y-66659550D01*
X101632419Y-66650000D01*
X101600000Y-66646807D01*
X101567581Y-66650000D01*
X100990000Y-66650000D01*
X100990000Y-64897000D01*
X101435955Y-64897000D01*
X101570343Y-64939630D01*
G37*
%TD.AperFunction*%
%TD*%
D18*
%TO.N,GND*%
X112839500Y-65394106D02*
X112839500Y-68444593D01*
X111978822Y-68961000D01*
X111667000Y-68961000D01*
X111667000Y-65024000D01*
X112469394Y-65024000D01*
X112839500Y-65394106D01*
%TA.AperFunction,Conductor*%
D19*
G36*
X112839500Y-65394106D02*
G01*
X112839500Y-68444593D01*
X111978822Y-68961000D01*
X111667000Y-68961000D01*
X111667000Y-65024000D01*
X112469394Y-65024000D01*
X112839500Y-65394106D01*
G37*
%TD.AperFunction*%
%TD*%
M02*
