%TF.GenerationSoftware,KiCad,Pcbnew,(5.1.9)-1*%
%TF.CreationDate,2021-05-28T15:44:06+02:00*%
%TF.ProjectId,16_STEP_DOWN,31365f53-5445-4505-9f44-4f574e2e6b69,rev?*%
%TF.SameCoordinates,Original*%
%TF.FileFunction,Other,Fab,Top*%
%FSLAX46Y46*%
G04 Gerber Fmt 4.6, Leading zero omitted, Abs format (unit mm)*
G04 Created by KiCad (PCBNEW (5.1.9)-1) date 2021-05-28 15:44:06*
%MOMM*%
%LPD*%
G01*
G04 APERTURE LIST*
%TA.AperFunction,Profile*%
%ADD10C,0.050000*%
%TD*%
%ADD11C,0.120000*%
%ADD12C,0.100000*%
%ADD13C,0.150000*%
%ADD14C,0.060000*%
%ADD15C,0.075000*%
G04 APERTURE END LIST*
D10*
X119380000Y-67310000D02*
X120650000Y-67310000D01*
X119380000Y-64770000D02*
X119380000Y-67310000D01*
X120650000Y-64770000D02*
X119380000Y-64770000D01*
X120650000Y-62230000D02*
X120650000Y-64770000D01*
X119380000Y-62230000D02*
X120650000Y-62230000D01*
X119380000Y-60960000D02*
X119380000Y-62230000D01*
X113665000Y-60960000D02*
X119380000Y-60960000D01*
X114935000Y-81280000D02*
X120650000Y-81280000D01*
X101600000Y-62230000D02*
X101600000Y-60960000D01*
X100330000Y-62230000D02*
X101600000Y-62230000D01*
X100330000Y-64770000D02*
X100330000Y-62230000D01*
X101600000Y-67310000D02*
X100330000Y-67310000D01*
X101600000Y-74930000D02*
X101600000Y-67310000D01*
X100330000Y-74930000D02*
X101600000Y-74930000D01*
X120650000Y-67310000D02*
X120650000Y-81280000D01*
X101600000Y-60960000D02*
X113665000Y-60960000D01*
X101600000Y-80010000D02*
X101600000Y-81280000D01*
X100330000Y-80010000D02*
X101600000Y-80010000D01*
X100330000Y-64770000D02*
X100330000Y-67310000D01*
X114935000Y-81280000D02*
X101600000Y-81280000D01*
X100330000Y-80010000D02*
X100330000Y-74930000D01*
D11*
%TO.C,J4*%
X101600000Y-80645000D02*
X101600000Y-76835000D01*
D12*
X104775000Y-80010000D02*
X101600000Y-80010000D01*
X101600000Y-77470000D02*
X102870000Y-77470000D01*
X102870000Y-77470000D02*
X105410000Y-77470000D01*
X105410000Y-77470000D02*
X105410000Y-79375000D01*
X105410000Y-79375000D02*
X104775000Y-80010000D01*
D11*
%TO.C,J1*%
X101600000Y-67945000D02*
X101600000Y-64135000D01*
D12*
X104775000Y-67310000D02*
X101600000Y-67310000D01*
X101600000Y-64770000D02*
X102870000Y-64770000D01*
X102870000Y-64770000D02*
X105410000Y-64770000D01*
X105410000Y-64770000D02*
X105410000Y-66675000D01*
X105410000Y-66675000D02*
X104775000Y-67310000D01*
D11*
%TO.C,J2*%
X101600000Y-65405000D02*
X101600000Y-61595000D01*
D12*
X104775000Y-64770000D02*
X101600000Y-64770000D01*
X101600000Y-62230000D02*
X102870000Y-62230000D01*
X102870000Y-62230000D02*
X105410000Y-62230000D01*
X105410000Y-62230000D02*
X105410000Y-64135000D01*
X105410000Y-64135000D02*
X104775000Y-64770000D01*
D11*
%TO.C,J3*%
X101600000Y-78105000D02*
X101600000Y-74295000D01*
D12*
X104775000Y-77470000D02*
X101600000Y-77470000D01*
X101600000Y-74930000D02*
X102870000Y-74930000D01*
X102870000Y-74930000D02*
X105410000Y-74930000D01*
X105410000Y-74930000D02*
X105410000Y-76835000D01*
X105410000Y-76835000D02*
X104775000Y-77470000D01*
D11*
%TO.C,J5*%
X119380000Y-61595000D02*
X119380000Y-65405000D01*
D12*
X116205000Y-62230000D02*
X119380000Y-62230000D01*
X119380000Y-64770000D02*
X118110000Y-64770000D01*
X118110000Y-64770000D02*
X115570000Y-64770000D01*
X115570000Y-64770000D02*
X115570000Y-62865000D01*
X115570000Y-62865000D02*
X116205000Y-62230000D01*
%TO.C,C4*%
X106280000Y-76670000D02*
X107080000Y-76670000D01*
X107080000Y-76670000D02*
X107080000Y-78270000D01*
X107080000Y-78270000D02*
X106280000Y-78270000D01*
X106280000Y-78270000D02*
X106280000Y-76670000D01*
%TO.C,C1*%
X115440000Y-74640000D02*
X113840000Y-74640000D01*
X115440000Y-73840000D02*
X115440000Y-74640000D01*
X113840000Y-73840000D02*
X115440000Y-73840000D01*
X113840000Y-74640000D02*
X113840000Y-73840000D01*
%TO.C,C2*%
X114040000Y-72990000D02*
X114040000Y-70490000D01*
X114040000Y-70490000D02*
X117240000Y-70490000D01*
X117240000Y-70490000D02*
X117240000Y-72990000D01*
X117240000Y-72990000D02*
X114040000Y-72990000D01*
%TO.C,C3*%
X108340000Y-67640000D02*
X108340000Y-66840000D01*
X108340000Y-66840000D02*
X109940000Y-66840000D01*
X109940000Y-66840000D02*
X109940000Y-67640000D01*
X109940000Y-67640000D02*
X108340000Y-67640000D01*
%TO.C,C5*%
X107970000Y-79340000D02*
X107970000Y-76140000D01*
X110470000Y-79340000D02*
X107970000Y-79340000D01*
X110470000Y-76140000D02*
X110470000Y-79340000D01*
X107970000Y-76140000D02*
X110470000Y-76140000D01*
%TO.C,D1*%
X112290000Y-64400000D02*
X109490000Y-64400000D01*
X109490000Y-64400000D02*
X109490000Y-62600000D01*
X109490000Y-62600000D02*
X112290000Y-62600000D01*
X112290000Y-62600000D02*
X112290000Y-64400000D01*
X111640000Y-63500000D02*
X111240000Y-63500000D01*
X111240000Y-63500000D02*
X111240000Y-64050000D01*
X111240000Y-63500000D02*
X111240000Y-62950000D01*
X111240000Y-63500000D02*
X110640000Y-63900000D01*
X110640000Y-63900000D02*
X110640000Y-63100000D01*
X110640000Y-63100000D02*
X111240000Y-63500000D01*
X110640000Y-63500000D02*
X110140000Y-63500000D01*
%TO.C,D2*%
X112540000Y-75940000D02*
X111740000Y-75940000D01*
X112540000Y-77540000D02*
X112540000Y-75940000D01*
X112040000Y-77540000D02*
X112540000Y-77540000D01*
X111740000Y-77240000D02*
X112040000Y-77540000D01*
X111740000Y-75940000D02*
X111740000Y-77240000D01*
%TO.C,L1*%
X104040000Y-73940000D02*
X104040000Y-69540000D01*
X104040000Y-69540000D02*
X108240000Y-69540000D01*
X108240000Y-69540000D02*
X108240000Y-73940000D01*
X108240000Y-73940000D02*
X104040000Y-73940000D01*
%TO.C,R1*%
X114552500Y-75940000D02*
X114552500Y-77540000D01*
X113727500Y-75940000D02*
X114552500Y-75940000D01*
X113727500Y-77540000D02*
X113727500Y-75940000D01*
X114552500Y-77540000D02*
X113727500Y-77540000D01*
%TO.C,U1*%
X109190000Y-70360000D02*
X112090000Y-70360000D01*
X112090000Y-70360000D02*
X112090000Y-72120000D01*
X109640000Y-72120000D02*
X112090000Y-72120000D01*
X109190000Y-70360000D02*
X109190000Y-71670000D01*
X109640000Y-72120000D02*
X109190000Y-71670000D01*
%TD*%
%TO.C,J4*%
D13*
X91511904Y-79097142D02*
X91464285Y-79144761D01*
X91321428Y-79192380D01*
X91226190Y-79192380D01*
X91083333Y-79144761D01*
X90988095Y-79049523D01*
X90940476Y-78954285D01*
X90892857Y-78763809D01*
X90892857Y-78620952D01*
X90940476Y-78430476D01*
X90988095Y-78335238D01*
X91083333Y-78240000D01*
X91226190Y-78192380D01*
X91321428Y-78192380D01*
X91464285Y-78240000D01*
X91511904Y-78287619D01*
X92083333Y-79192380D02*
X91988095Y-79144761D01*
X91940476Y-79097142D01*
X91892857Y-79001904D01*
X91892857Y-78716190D01*
X91940476Y-78620952D01*
X91988095Y-78573333D01*
X92083333Y-78525714D01*
X92226190Y-78525714D01*
X92321428Y-78573333D01*
X92369047Y-78620952D01*
X92416666Y-78716190D01*
X92416666Y-79001904D01*
X92369047Y-79097142D01*
X92321428Y-79144761D01*
X92226190Y-79192380D01*
X92083333Y-79192380D01*
X92845238Y-78525714D02*
X92845238Y-79192380D01*
X92845238Y-78620952D02*
X92892857Y-78573333D01*
X92988095Y-78525714D01*
X93130952Y-78525714D01*
X93226190Y-78573333D01*
X93273809Y-78668571D01*
X93273809Y-79192380D01*
X93750000Y-78525714D02*
X93750000Y-79192380D01*
X93750000Y-78620952D02*
X93797619Y-78573333D01*
X93892857Y-78525714D01*
X94035714Y-78525714D01*
X94130952Y-78573333D01*
X94178571Y-78668571D01*
X94178571Y-79192380D01*
X94416666Y-79287619D02*
X95178571Y-79287619D01*
X95607142Y-78192380D02*
X95702380Y-78192380D01*
X95797619Y-78240000D01*
X95845238Y-78287619D01*
X95892857Y-78382857D01*
X95940476Y-78573333D01*
X95940476Y-78811428D01*
X95892857Y-79001904D01*
X95845238Y-79097142D01*
X95797619Y-79144761D01*
X95702380Y-79192380D01*
X95607142Y-79192380D01*
X95511904Y-79144761D01*
X95464285Y-79097142D01*
X95416666Y-79001904D01*
X95369047Y-78811428D01*
X95369047Y-78573333D01*
X95416666Y-78382857D01*
X95464285Y-78287619D01*
X95511904Y-78240000D01*
X95607142Y-78192380D01*
X96892857Y-79192380D02*
X96321428Y-79192380D01*
X96607142Y-79192380D02*
X96607142Y-78192380D01*
X96511904Y-78335238D01*
X96416666Y-78430476D01*
X96321428Y-78478095D01*
X97226190Y-79192380D02*
X97750000Y-78525714D01*
X97226190Y-78525714D02*
X97750000Y-79192380D01*
X98321428Y-78192380D02*
X98416666Y-78192380D01*
X98511904Y-78240000D01*
X98559523Y-78287619D01*
X98607142Y-78382857D01*
X98654761Y-78573333D01*
X98654761Y-78811428D01*
X98607142Y-79001904D01*
X98559523Y-79097142D01*
X98511904Y-79144761D01*
X98416666Y-79192380D01*
X98321428Y-79192380D01*
X98226190Y-79144761D01*
X98178571Y-79097142D01*
X98130952Y-79001904D01*
X98083333Y-78811428D01*
X98083333Y-78573333D01*
X98130952Y-78382857D01*
X98178571Y-78287619D01*
X98226190Y-78240000D01*
X98321428Y-78192380D01*
X99607142Y-79192380D02*
X99035714Y-79192380D01*
X99321428Y-79192380D02*
X99321428Y-78192380D01*
X99226190Y-78335238D01*
X99130952Y-78430476D01*
X99035714Y-78478095D01*
X103806666Y-78192380D02*
X103806666Y-78906666D01*
X103759047Y-79049523D01*
X103663809Y-79144761D01*
X103520952Y-79192380D01*
X103425714Y-79192380D01*
X104711428Y-78525714D02*
X104711428Y-79192380D01*
X104473333Y-78144761D02*
X104235238Y-78859047D01*
X104854285Y-78859047D01*
%TO.C,J1*%
X91511904Y-66397142D02*
X91464285Y-66444761D01*
X91321428Y-66492380D01*
X91226190Y-66492380D01*
X91083333Y-66444761D01*
X90988095Y-66349523D01*
X90940476Y-66254285D01*
X90892857Y-66063809D01*
X90892857Y-65920952D01*
X90940476Y-65730476D01*
X90988095Y-65635238D01*
X91083333Y-65540000D01*
X91226190Y-65492380D01*
X91321428Y-65492380D01*
X91464285Y-65540000D01*
X91511904Y-65587619D01*
X92083333Y-66492380D02*
X91988095Y-66444761D01*
X91940476Y-66397142D01*
X91892857Y-66301904D01*
X91892857Y-66016190D01*
X91940476Y-65920952D01*
X91988095Y-65873333D01*
X92083333Y-65825714D01*
X92226190Y-65825714D01*
X92321428Y-65873333D01*
X92369047Y-65920952D01*
X92416666Y-66016190D01*
X92416666Y-66301904D01*
X92369047Y-66397142D01*
X92321428Y-66444761D01*
X92226190Y-66492380D01*
X92083333Y-66492380D01*
X92845238Y-65825714D02*
X92845238Y-66492380D01*
X92845238Y-65920952D02*
X92892857Y-65873333D01*
X92988095Y-65825714D01*
X93130952Y-65825714D01*
X93226190Y-65873333D01*
X93273809Y-65968571D01*
X93273809Y-66492380D01*
X93750000Y-65825714D02*
X93750000Y-66492380D01*
X93750000Y-65920952D02*
X93797619Y-65873333D01*
X93892857Y-65825714D01*
X94035714Y-65825714D01*
X94130952Y-65873333D01*
X94178571Y-65968571D01*
X94178571Y-66492380D01*
X94416666Y-66587619D02*
X95178571Y-66587619D01*
X95607142Y-65492380D02*
X95702380Y-65492380D01*
X95797619Y-65540000D01*
X95845238Y-65587619D01*
X95892857Y-65682857D01*
X95940476Y-65873333D01*
X95940476Y-66111428D01*
X95892857Y-66301904D01*
X95845238Y-66397142D01*
X95797619Y-66444761D01*
X95702380Y-66492380D01*
X95607142Y-66492380D01*
X95511904Y-66444761D01*
X95464285Y-66397142D01*
X95416666Y-66301904D01*
X95369047Y-66111428D01*
X95369047Y-65873333D01*
X95416666Y-65682857D01*
X95464285Y-65587619D01*
X95511904Y-65540000D01*
X95607142Y-65492380D01*
X96892857Y-66492380D02*
X96321428Y-66492380D01*
X96607142Y-66492380D02*
X96607142Y-65492380D01*
X96511904Y-65635238D01*
X96416666Y-65730476D01*
X96321428Y-65778095D01*
X97226190Y-66492380D02*
X97750000Y-65825714D01*
X97226190Y-65825714D02*
X97750000Y-66492380D01*
X98321428Y-65492380D02*
X98416666Y-65492380D01*
X98511904Y-65540000D01*
X98559523Y-65587619D01*
X98607142Y-65682857D01*
X98654761Y-65873333D01*
X98654761Y-66111428D01*
X98607142Y-66301904D01*
X98559523Y-66397142D01*
X98511904Y-66444761D01*
X98416666Y-66492380D01*
X98321428Y-66492380D01*
X98226190Y-66444761D01*
X98178571Y-66397142D01*
X98130952Y-66301904D01*
X98083333Y-66111428D01*
X98083333Y-65873333D01*
X98130952Y-65682857D01*
X98178571Y-65587619D01*
X98226190Y-65540000D01*
X98321428Y-65492380D01*
X99607142Y-66492380D02*
X99035714Y-66492380D01*
X99321428Y-66492380D02*
X99321428Y-65492380D01*
X99226190Y-65635238D01*
X99130952Y-65730476D01*
X99035714Y-65778095D01*
X103806666Y-65492380D02*
X103806666Y-66206666D01*
X103759047Y-66349523D01*
X103663809Y-66444761D01*
X103520952Y-66492380D01*
X103425714Y-66492380D01*
X104806666Y-66492380D02*
X104235238Y-66492380D01*
X104520952Y-66492380D02*
X104520952Y-65492380D01*
X104425714Y-65635238D01*
X104330476Y-65730476D01*
X104235238Y-65778095D01*
%TO.C,J2*%
X91511904Y-63857142D02*
X91464285Y-63904761D01*
X91321428Y-63952380D01*
X91226190Y-63952380D01*
X91083333Y-63904761D01*
X90988095Y-63809523D01*
X90940476Y-63714285D01*
X90892857Y-63523809D01*
X90892857Y-63380952D01*
X90940476Y-63190476D01*
X90988095Y-63095238D01*
X91083333Y-63000000D01*
X91226190Y-62952380D01*
X91321428Y-62952380D01*
X91464285Y-63000000D01*
X91511904Y-63047619D01*
X92083333Y-63952380D02*
X91988095Y-63904761D01*
X91940476Y-63857142D01*
X91892857Y-63761904D01*
X91892857Y-63476190D01*
X91940476Y-63380952D01*
X91988095Y-63333333D01*
X92083333Y-63285714D01*
X92226190Y-63285714D01*
X92321428Y-63333333D01*
X92369047Y-63380952D01*
X92416666Y-63476190D01*
X92416666Y-63761904D01*
X92369047Y-63857142D01*
X92321428Y-63904761D01*
X92226190Y-63952380D01*
X92083333Y-63952380D01*
X92845238Y-63285714D02*
X92845238Y-63952380D01*
X92845238Y-63380952D02*
X92892857Y-63333333D01*
X92988095Y-63285714D01*
X93130952Y-63285714D01*
X93226190Y-63333333D01*
X93273809Y-63428571D01*
X93273809Y-63952380D01*
X93750000Y-63285714D02*
X93750000Y-63952380D01*
X93750000Y-63380952D02*
X93797619Y-63333333D01*
X93892857Y-63285714D01*
X94035714Y-63285714D01*
X94130952Y-63333333D01*
X94178571Y-63428571D01*
X94178571Y-63952380D01*
X94416666Y-64047619D02*
X95178571Y-64047619D01*
X95607142Y-62952380D02*
X95702380Y-62952380D01*
X95797619Y-63000000D01*
X95845238Y-63047619D01*
X95892857Y-63142857D01*
X95940476Y-63333333D01*
X95940476Y-63571428D01*
X95892857Y-63761904D01*
X95845238Y-63857142D01*
X95797619Y-63904761D01*
X95702380Y-63952380D01*
X95607142Y-63952380D01*
X95511904Y-63904761D01*
X95464285Y-63857142D01*
X95416666Y-63761904D01*
X95369047Y-63571428D01*
X95369047Y-63333333D01*
X95416666Y-63142857D01*
X95464285Y-63047619D01*
X95511904Y-63000000D01*
X95607142Y-62952380D01*
X96892857Y-63952380D02*
X96321428Y-63952380D01*
X96607142Y-63952380D02*
X96607142Y-62952380D01*
X96511904Y-63095238D01*
X96416666Y-63190476D01*
X96321428Y-63238095D01*
X97226190Y-63952380D02*
X97750000Y-63285714D01*
X97226190Y-63285714D02*
X97750000Y-63952380D01*
X98321428Y-62952380D02*
X98416666Y-62952380D01*
X98511904Y-63000000D01*
X98559523Y-63047619D01*
X98607142Y-63142857D01*
X98654761Y-63333333D01*
X98654761Y-63571428D01*
X98607142Y-63761904D01*
X98559523Y-63857142D01*
X98511904Y-63904761D01*
X98416666Y-63952380D01*
X98321428Y-63952380D01*
X98226190Y-63904761D01*
X98178571Y-63857142D01*
X98130952Y-63761904D01*
X98083333Y-63571428D01*
X98083333Y-63333333D01*
X98130952Y-63142857D01*
X98178571Y-63047619D01*
X98226190Y-63000000D01*
X98321428Y-62952380D01*
X99607142Y-63952380D02*
X99035714Y-63952380D01*
X99321428Y-63952380D02*
X99321428Y-62952380D01*
X99226190Y-63095238D01*
X99130952Y-63190476D01*
X99035714Y-63238095D01*
X103806666Y-62952380D02*
X103806666Y-63666666D01*
X103759047Y-63809523D01*
X103663809Y-63904761D01*
X103520952Y-63952380D01*
X103425714Y-63952380D01*
X104235238Y-63047619D02*
X104282857Y-63000000D01*
X104378095Y-62952380D01*
X104616190Y-62952380D01*
X104711428Y-63000000D01*
X104759047Y-63047619D01*
X104806666Y-63142857D01*
X104806666Y-63238095D01*
X104759047Y-63380952D01*
X104187619Y-63952380D01*
X104806666Y-63952380D01*
%TO.C,J3*%
X91511904Y-76557142D02*
X91464285Y-76604761D01*
X91321428Y-76652380D01*
X91226190Y-76652380D01*
X91083333Y-76604761D01*
X90988095Y-76509523D01*
X90940476Y-76414285D01*
X90892857Y-76223809D01*
X90892857Y-76080952D01*
X90940476Y-75890476D01*
X90988095Y-75795238D01*
X91083333Y-75700000D01*
X91226190Y-75652380D01*
X91321428Y-75652380D01*
X91464285Y-75700000D01*
X91511904Y-75747619D01*
X92083333Y-76652380D02*
X91988095Y-76604761D01*
X91940476Y-76557142D01*
X91892857Y-76461904D01*
X91892857Y-76176190D01*
X91940476Y-76080952D01*
X91988095Y-76033333D01*
X92083333Y-75985714D01*
X92226190Y-75985714D01*
X92321428Y-76033333D01*
X92369047Y-76080952D01*
X92416666Y-76176190D01*
X92416666Y-76461904D01*
X92369047Y-76557142D01*
X92321428Y-76604761D01*
X92226190Y-76652380D01*
X92083333Y-76652380D01*
X92845238Y-75985714D02*
X92845238Y-76652380D01*
X92845238Y-76080952D02*
X92892857Y-76033333D01*
X92988095Y-75985714D01*
X93130952Y-75985714D01*
X93226190Y-76033333D01*
X93273809Y-76128571D01*
X93273809Y-76652380D01*
X93750000Y-75985714D02*
X93750000Y-76652380D01*
X93750000Y-76080952D02*
X93797619Y-76033333D01*
X93892857Y-75985714D01*
X94035714Y-75985714D01*
X94130952Y-76033333D01*
X94178571Y-76128571D01*
X94178571Y-76652380D01*
X94416666Y-76747619D02*
X95178571Y-76747619D01*
X95607142Y-75652380D02*
X95702380Y-75652380D01*
X95797619Y-75700000D01*
X95845238Y-75747619D01*
X95892857Y-75842857D01*
X95940476Y-76033333D01*
X95940476Y-76271428D01*
X95892857Y-76461904D01*
X95845238Y-76557142D01*
X95797619Y-76604761D01*
X95702380Y-76652380D01*
X95607142Y-76652380D01*
X95511904Y-76604761D01*
X95464285Y-76557142D01*
X95416666Y-76461904D01*
X95369047Y-76271428D01*
X95369047Y-76033333D01*
X95416666Y-75842857D01*
X95464285Y-75747619D01*
X95511904Y-75700000D01*
X95607142Y-75652380D01*
X96892857Y-76652380D02*
X96321428Y-76652380D01*
X96607142Y-76652380D02*
X96607142Y-75652380D01*
X96511904Y-75795238D01*
X96416666Y-75890476D01*
X96321428Y-75938095D01*
X97226190Y-76652380D02*
X97750000Y-75985714D01*
X97226190Y-75985714D02*
X97750000Y-76652380D01*
X98321428Y-75652380D02*
X98416666Y-75652380D01*
X98511904Y-75700000D01*
X98559523Y-75747619D01*
X98607142Y-75842857D01*
X98654761Y-76033333D01*
X98654761Y-76271428D01*
X98607142Y-76461904D01*
X98559523Y-76557142D01*
X98511904Y-76604761D01*
X98416666Y-76652380D01*
X98321428Y-76652380D01*
X98226190Y-76604761D01*
X98178571Y-76557142D01*
X98130952Y-76461904D01*
X98083333Y-76271428D01*
X98083333Y-76033333D01*
X98130952Y-75842857D01*
X98178571Y-75747619D01*
X98226190Y-75700000D01*
X98321428Y-75652380D01*
X99607142Y-76652380D02*
X99035714Y-76652380D01*
X99321428Y-76652380D02*
X99321428Y-75652380D01*
X99226190Y-75795238D01*
X99130952Y-75890476D01*
X99035714Y-75938095D01*
X103806666Y-75652380D02*
X103806666Y-76366666D01*
X103759047Y-76509523D01*
X103663809Y-76604761D01*
X103520952Y-76652380D01*
X103425714Y-76652380D01*
X104187619Y-75652380D02*
X104806666Y-75652380D01*
X104473333Y-76033333D01*
X104616190Y-76033333D01*
X104711428Y-76080952D01*
X104759047Y-76128571D01*
X104806666Y-76223809D01*
X104806666Y-76461904D01*
X104759047Y-76557142D01*
X104711428Y-76604761D01*
X104616190Y-76652380D01*
X104330476Y-76652380D01*
X104235238Y-76604761D01*
X104187619Y-76557142D01*
%TO.C,J5*%
X121991904Y-63857142D02*
X121944285Y-63904761D01*
X121801428Y-63952380D01*
X121706190Y-63952380D01*
X121563333Y-63904761D01*
X121468095Y-63809523D01*
X121420476Y-63714285D01*
X121372857Y-63523809D01*
X121372857Y-63380952D01*
X121420476Y-63190476D01*
X121468095Y-63095238D01*
X121563333Y-63000000D01*
X121706190Y-62952380D01*
X121801428Y-62952380D01*
X121944285Y-63000000D01*
X121991904Y-63047619D01*
X122563333Y-63952380D02*
X122468095Y-63904761D01*
X122420476Y-63857142D01*
X122372857Y-63761904D01*
X122372857Y-63476190D01*
X122420476Y-63380952D01*
X122468095Y-63333333D01*
X122563333Y-63285714D01*
X122706190Y-63285714D01*
X122801428Y-63333333D01*
X122849047Y-63380952D01*
X122896666Y-63476190D01*
X122896666Y-63761904D01*
X122849047Y-63857142D01*
X122801428Y-63904761D01*
X122706190Y-63952380D01*
X122563333Y-63952380D01*
X123325238Y-63285714D02*
X123325238Y-63952380D01*
X123325238Y-63380952D02*
X123372857Y-63333333D01*
X123468095Y-63285714D01*
X123610952Y-63285714D01*
X123706190Y-63333333D01*
X123753809Y-63428571D01*
X123753809Y-63952380D01*
X124230000Y-63285714D02*
X124230000Y-63952380D01*
X124230000Y-63380952D02*
X124277619Y-63333333D01*
X124372857Y-63285714D01*
X124515714Y-63285714D01*
X124610952Y-63333333D01*
X124658571Y-63428571D01*
X124658571Y-63952380D01*
X124896666Y-64047619D02*
X125658571Y-64047619D01*
X126087142Y-62952380D02*
X126182380Y-62952380D01*
X126277619Y-63000000D01*
X126325238Y-63047619D01*
X126372857Y-63142857D01*
X126420476Y-63333333D01*
X126420476Y-63571428D01*
X126372857Y-63761904D01*
X126325238Y-63857142D01*
X126277619Y-63904761D01*
X126182380Y-63952380D01*
X126087142Y-63952380D01*
X125991904Y-63904761D01*
X125944285Y-63857142D01*
X125896666Y-63761904D01*
X125849047Y-63571428D01*
X125849047Y-63333333D01*
X125896666Y-63142857D01*
X125944285Y-63047619D01*
X125991904Y-63000000D01*
X126087142Y-62952380D01*
X127372857Y-63952380D02*
X126801428Y-63952380D01*
X127087142Y-63952380D02*
X127087142Y-62952380D01*
X126991904Y-63095238D01*
X126896666Y-63190476D01*
X126801428Y-63238095D01*
X127706190Y-63952380D02*
X128230000Y-63285714D01*
X127706190Y-63285714D02*
X128230000Y-63952380D01*
X128801428Y-62952380D02*
X128896666Y-62952380D01*
X128991904Y-63000000D01*
X129039523Y-63047619D01*
X129087142Y-63142857D01*
X129134761Y-63333333D01*
X129134761Y-63571428D01*
X129087142Y-63761904D01*
X129039523Y-63857142D01*
X128991904Y-63904761D01*
X128896666Y-63952380D01*
X128801428Y-63952380D01*
X128706190Y-63904761D01*
X128658571Y-63857142D01*
X128610952Y-63761904D01*
X128563333Y-63571428D01*
X128563333Y-63333333D01*
X128610952Y-63142857D01*
X128658571Y-63047619D01*
X128706190Y-63000000D01*
X128801428Y-62952380D01*
X130087142Y-63952380D02*
X129515714Y-63952380D01*
X129801428Y-63952380D02*
X129801428Y-62952380D01*
X129706190Y-63095238D01*
X129610952Y-63190476D01*
X129515714Y-63238095D01*
X116506666Y-62952380D02*
X116506666Y-63666666D01*
X116459047Y-63809523D01*
X116363809Y-63904761D01*
X116220952Y-63952380D01*
X116125714Y-63952380D01*
X117459047Y-62952380D02*
X116982857Y-62952380D01*
X116935238Y-63428571D01*
X116982857Y-63380952D01*
X117078095Y-63333333D01*
X117316190Y-63333333D01*
X117411428Y-63380952D01*
X117459047Y-63428571D01*
X117506666Y-63523809D01*
X117506666Y-63761904D01*
X117459047Y-63857142D01*
X117411428Y-63904761D01*
X117316190Y-63952380D01*
X117078095Y-63952380D01*
X116982857Y-63904761D01*
X116935238Y-63857142D01*
%TO.C,C4*%
X105702380Y-79017619D02*
X105702380Y-79589047D01*
X105702380Y-79303333D02*
X104702380Y-79303333D01*
X104845238Y-79398571D01*
X104940476Y-79493809D01*
X104988095Y-79589047D01*
X104702380Y-78398571D02*
X104702380Y-78303333D01*
X104750000Y-78208095D01*
X104797619Y-78160476D01*
X104892857Y-78112857D01*
X105083333Y-78065238D01*
X105321428Y-78065238D01*
X105511904Y-78112857D01*
X105607142Y-78160476D01*
X105654761Y-78208095D01*
X105702380Y-78303333D01*
X105702380Y-78398571D01*
X105654761Y-78493809D01*
X105607142Y-78541428D01*
X105511904Y-78589047D01*
X105321428Y-78636666D01*
X105083333Y-78636666D01*
X104892857Y-78589047D01*
X104797619Y-78541428D01*
X104750000Y-78493809D01*
X104702380Y-78398571D01*
X104702380Y-77446190D02*
X104702380Y-77350952D01*
X104750000Y-77255714D01*
X104797619Y-77208095D01*
X104892857Y-77160476D01*
X105083333Y-77112857D01*
X105321428Y-77112857D01*
X105511904Y-77160476D01*
X105607142Y-77208095D01*
X105654761Y-77255714D01*
X105702380Y-77350952D01*
X105702380Y-77446190D01*
X105654761Y-77541428D01*
X105607142Y-77589047D01*
X105511904Y-77636666D01*
X105321428Y-77684285D01*
X105083333Y-77684285D01*
X104892857Y-77636666D01*
X104797619Y-77589047D01*
X104750000Y-77541428D01*
X104702380Y-77446190D01*
X105035714Y-76684285D02*
X105702380Y-76684285D01*
X105130952Y-76684285D02*
X105083333Y-76636666D01*
X105035714Y-76541428D01*
X105035714Y-76398571D01*
X105083333Y-76303333D01*
X105178571Y-76255714D01*
X105702380Y-76255714D01*
X105178571Y-75446190D02*
X105178571Y-75779523D01*
X105702380Y-75779523D02*
X104702380Y-75779523D01*
X104702380Y-75303333D01*
D14*
X106822857Y-77536666D02*
X106841904Y-77555714D01*
X106860952Y-77612857D01*
X106860952Y-77650952D01*
X106841904Y-77708095D01*
X106803809Y-77746190D01*
X106765714Y-77765238D01*
X106689523Y-77784285D01*
X106632380Y-77784285D01*
X106556190Y-77765238D01*
X106518095Y-77746190D01*
X106480000Y-77708095D01*
X106460952Y-77650952D01*
X106460952Y-77612857D01*
X106480000Y-77555714D01*
X106499047Y-77536666D01*
X106594285Y-77193809D02*
X106860952Y-77193809D01*
X106441904Y-77289047D02*
X106727619Y-77384285D01*
X106727619Y-77136666D01*
%TO.C,C1*%
D13*
X113092380Y-76122380D02*
X112520952Y-76122380D01*
X112806666Y-76122380D02*
X112806666Y-75122380D01*
X112711428Y-75265238D01*
X112616190Y-75360476D01*
X112520952Y-75408095D01*
X113711428Y-75122380D02*
X113806666Y-75122380D01*
X113901904Y-75170000D01*
X113949523Y-75217619D01*
X113997142Y-75312857D01*
X114044761Y-75503333D01*
X114044761Y-75741428D01*
X113997142Y-75931904D01*
X113949523Y-76027142D01*
X113901904Y-76074761D01*
X113806666Y-76122380D01*
X113711428Y-76122380D01*
X113616190Y-76074761D01*
X113568571Y-76027142D01*
X113520952Y-75931904D01*
X113473333Y-75741428D01*
X113473333Y-75503333D01*
X113520952Y-75312857D01*
X113568571Y-75217619D01*
X113616190Y-75170000D01*
X113711428Y-75122380D01*
X114663809Y-75122380D02*
X114759047Y-75122380D01*
X114854285Y-75170000D01*
X114901904Y-75217619D01*
X114949523Y-75312857D01*
X114997142Y-75503333D01*
X114997142Y-75741428D01*
X114949523Y-75931904D01*
X114901904Y-76027142D01*
X114854285Y-76074761D01*
X114759047Y-76122380D01*
X114663809Y-76122380D01*
X114568571Y-76074761D01*
X114520952Y-76027142D01*
X114473333Y-75931904D01*
X114425714Y-75741428D01*
X114425714Y-75503333D01*
X114473333Y-75312857D01*
X114520952Y-75217619D01*
X114568571Y-75170000D01*
X114663809Y-75122380D01*
X115425714Y-75455714D02*
X115425714Y-76122380D01*
X115425714Y-75550952D02*
X115473333Y-75503333D01*
X115568571Y-75455714D01*
X115711428Y-75455714D01*
X115806666Y-75503333D01*
X115854285Y-75598571D01*
X115854285Y-76122380D01*
X116663809Y-75598571D02*
X116330476Y-75598571D01*
X116330476Y-76122380D02*
X116330476Y-75122380D01*
X116806666Y-75122380D01*
D14*
X114573333Y-74382857D02*
X114554285Y-74401904D01*
X114497142Y-74420952D01*
X114459047Y-74420952D01*
X114401904Y-74401904D01*
X114363809Y-74363809D01*
X114344761Y-74325714D01*
X114325714Y-74249523D01*
X114325714Y-74192380D01*
X114344761Y-74116190D01*
X114363809Y-74078095D01*
X114401904Y-74040000D01*
X114459047Y-74020952D01*
X114497142Y-74020952D01*
X114554285Y-74040000D01*
X114573333Y-74059047D01*
X114954285Y-74420952D02*
X114725714Y-74420952D01*
X114840000Y-74420952D02*
X114840000Y-74020952D01*
X114801904Y-74078095D01*
X114763809Y-74116190D01*
X114725714Y-74135238D01*
%TO.C,C2*%
D13*
X112663809Y-74492380D02*
X112092380Y-74492380D01*
X112378095Y-74492380D02*
X112378095Y-73492380D01*
X112282857Y-73635238D01*
X112187619Y-73730476D01*
X112092380Y-73778095D01*
X113282857Y-73492380D02*
X113378095Y-73492380D01*
X113473333Y-73540000D01*
X113520952Y-73587619D01*
X113568571Y-73682857D01*
X113616190Y-73873333D01*
X113616190Y-74111428D01*
X113568571Y-74301904D01*
X113520952Y-74397142D01*
X113473333Y-74444761D01*
X113378095Y-74492380D01*
X113282857Y-74492380D01*
X113187619Y-74444761D01*
X113140000Y-74397142D01*
X113092380Y-74301904D01*
X113044761Y-74111428D01*
X113044761Y-73873333D01*
X113092380Y-73682857D01*
X113140000Y-73587619D01*
X113187619Y-73540000D01*
X113282857Y-73492380D01*
X114473333Y-73825714D02*
X114473333Y-74492380D01*
X114044761Y-73825714D02*
X114044761Y-74349523D01*
X114092380Y-74444761D01*
X114187619Y-74492380D01*
X114330476Y-74492380D01*
X114425714Y-74444761D01*
X114473333Y-74397142D01*
X115282857Y-73968571D02*
X114949523Y-73968571D01*
X114949523Y-74492380D02*
X114949523Y-73492380D01*
X115425714Y-73492380D01*
X116520952Y-73444761D02*
X115663809Y-74730476D01*
X117330476Y-73492380D02*
X116854285Y-73492380D01*
X116806666Y-73968571D01*
X116854285Y-73920952D01*
X116949523Y-73873333D01*
X117187619Y-73873333D01*
X117282857Y-73920952D01*
X117330476Y-73968571D01*
X117378095Y-74063809D01*
X117378095Y-74301904D01*
X117330476Y-74397142D01*
X117282857Y-74444761D01*
X117187619Y-74492380D01*
X116949523Y-74492380D01*
X116854285Y-74444761D01*
X116806666Y-74397142D01*
X117997142Y-73492380D02*
X118092380Y-73492380D01*
X118187619Y-73540000D01*
X118235238Y-73587619D01*
X118282857Y-73682857D01*
X118330476Y-73873333D01*
X118330476Y-74111428D01*
X118282857Y-74301904D01*
X118235238Y-74397142D01*
X118187619Y-74444761D01*
X118092380Y-74492380D01*
X117997142Y-74492380D01*
X117901904Y-74444761D01*
X117854285Y-74397142D01*
X117806666Y-74301904D01*
X117759047Y-74111428D01*
X117759047Y-73873333D01*
X117806666Y-73682857D01*
X117854285Y-73587619D01*
X117901904Y-73540000D01*
X117997142Y-73492380D01*
X118616190Y-73492380D02*
X118949523Y-74492380D01*
X119282857Y-73492380D01*
D11*
X115506666Y-72025714D02*
X115468571Y-72063809D01*
X115354285Y-72101904D01*
X115278095Y-72101904D01*
X115163809Y-72063809D01*
X115087619Y-71987619D01*
X115049523Y-71911428D01*
X115011428Y-71759047D01*
X115011428Y-71644761D01*
X115049523Y-71492380D01*
X115087619Y-71416190D01*
X115163809Y-71340000D01*
X115278095Y-71301904D01*
X115354285Y-71301904D01*
X115468571Y-71340000D01*
X115506666Y-71378095D01*
X115811428Y-71378095D02*
X115849523Y-71340000D01*
X115925714Y-71301904D01*
X116116190Y-71301904D01*
X116192380Y-71340000D01*
X116230476Y-71378095D01*
X116268571Y-71454285D01*
X116268571Y-71530476D01*
X116230476Y-71644761D01*
X115773333Y-72101904D01*
X116268571Y-72101904D01*
%TO.C,C3*%
D13*
X107592380Y-69122380D02*
X107020952Y-69122380D01*
X107306666Y-69122380D02*
X107306666Y-68122380D01*
X107211428Y-68265238D01*
X107116190Y-68360476D01*
X107020952Y-68408095D01*
X108211428Y-68122380D02*
X108306666Y-68122380D01*
X108401904Y-68170000D01*
X108449523Y-68217619D01*
X108497142Y-68312857D01*
X108544761Y-68503333D01*
X108544761Y-68741428D01*
X108497142Y-68931904D01*
X108449523Y-69027142D01*
X108401904Y-69074761D01*
X108306666Y-69122380D01*
X108211428Y-69122380D01*
X108116190Y-69074761D01*
X108068571Y-69027142D01*
X108020952Y-68931904D01*
X107973333Y-68741428D01*
X107973333Y-68503333D01*
X108020952Y-68312857D01*
X108068571Y-68217619D01*
X108116190Y-68170000D01*
X108211428Y-68122380D01*
X109163809Y-68122380D02*
X109259047Y-68122380D01*
X109354285Y-68170000D01*
X109401904Y-68217619D01*
X109449523Y-68312857D01*
X109497142Y-68503333D01*
X109497142Y-68741428D01*
X109449523Y-68931904D01*
X109401904Y-69027142D01*
X109354285Y-69074761D01*
X109259047Y-69122380D01*
X109163809Y-69122380D01*
X109068571Y-69074761D01*
X109020952Y-69027142D01*
X108973333Y-68931904D01*
X108925714Y-68741428D01*
X108925714Y-68503333D01*
X108973333Y-68312857D01*
X109020952Y-68217619D01*
X109068571Y-68170000D01*
X109163809Y-68122380D01*
X109925714Y-68455714D02*
X109925714Y-69122380D01*
X109925714Y-68550952D02*
X109973333Y-68503333D01*
X110068571Y-68455714D01*
X110211428Y-68455714D01*
X110306666Y-68503333D01*
X110354285Y-68598571D01*
X110354285Y-69122380D01*
X111163809Y-68598571D02*
X110830476Y-68598571D01*
X110830476Y-69122380D02*
X110830476Y-68122380D01*
X111306666Y-68122380D01*
D14*
X109073333Y-67382857D02*
X109054285Y-67401904D01*
X108997142Y-67420952D01*
X108959047Y-67420952D01*
X108901904Y-67401904D01*
X108863809Y-67363809D01*
X108844761Y-67325714D01*
X108825714Y-67249523D01*
X108825714Y-67192380D01*
X108844761Y-67116190D01*
X108863809Y-67078095D01*
X108901904Y-67040000D01*
X108959047Y-67020952D01*
X108997142Y-67020952D01*
X109054285Y-67040000D01*
X109073333Y-67059047D01*
X109206666Y-67020952D02*
X109454285Y-67020952D01*
X109320952Y-67173333D01*
X109378095Y-67173333D01*
X109416190Y-67192380D01*
X109435238Y-67211428D01*
X109454285Y-67249523D01*
X109454285Y-67344761D01*
X109435238Y-67382857D01*
X109416190Y-67401904D01*
X109378095Y-67420952D01*
X109263809Y-67420952D01*
X109225714Y-67401904D01*
X109206666Y-67382857D01*
%TO.C,C5*%
D13*
X107372380Y-80716190D02*
X107372380Y-81287619D01*
X107372380Y-81001904D02*
X106372380Y-81001904D01*
X106515238Y-81097142D01*
X106610476Y-81192380D01*
X106658095Y-81287619D01*
X106372380Y-80097142D02*
X106372380Y-80001904D01*
X106420000Y-79906666D01*
X106467619Y-79859047D01*
X106562857Y-79811428D01*
X106753333Y-79763809D01*
X106991428Y-79763809D01*
X107181904Y-79811428D01*
X107277142Y-79859047D01*
X107324761Y-79906666D01*
X107372380Y-80001904D01*
X107372380Y-80097142D01*
X107324761Y-80192380D01*
X107277142Y-80240000D01*
X107181904Y-80287619D01*
X106991428Y-80335238D01*
X106753333Y-80335238D01*
X106562857Y-80287619D01*
X106467619Y-80240000D01*
X106420000Y-80192380D01*
X106372380Y-80097142D01*
X106705714Y-78906666D02*
X107372380Y-78906666D01*
X106705714Y-79335238D02*
X107229523Y-79335238D01*
X107324761Y-79287619D01*
X107372380Y-79192380D01*
X107372380Y-79049523D01*
X107324761Y-78954285D01*
X107277142Y-78906666D01*
X106848571Y-78097142D02*
X106848571Y-78430476D01*
X107372380Y-78430476D02*
X106372380Y-78430476D01*
X106372380Y-77954285D01*
X106324761Y-76859047D02*
X107610476Y-77716190D01*
X106372380Y-76049523D02*
X106372380Y-76525714D01*
X106848571Y-76573333D01*
X106800952Y-76525714D01*
X106753333Y-76430476D01*
X106753333Y-76192380D01*
X106800952Y-76097142D01*
X106848571Y-76049523D01*
X106943809Y-76001904D01*
X107181904Y-76001904D01*
X107277142Y-76049523D01*
X107324761Y-76097142D01*
X107372380Y-76192380D01*
X107372380Y-76430476D01*
X107324761Y-76525714D01*
X107277142Y-76573333D01*
X106372380Y-75382857D02*
X106372380Y-75287619D01*
X106420000Y-75192380D01*
X106467619Y-75144761D01*
X106562857Y-75097142D01*
X106753333Y-75049523D01*
X106991428Y-75049523D01*
X107181904Y-75097142D01*
X107277142Y-75144761D01*
X107324761Y-75192380D01*
X107372380Y-75287619D01*
X107372380Y-75382857D01*
X107324761Y-75478095D01*
X107277142Y-75525714D01*
X107181904Y-75573333D01*
X106991428Y-75620952D01*
X106753333Y-75620952D01*
X106562857Y-75573333D01*
X106467619Y-75525714D01*
X106420000Y-75478095D01*
X106372380Y-75382857D01*
X106372380Y-74763809D02*
X107372380Y-74430476D01*
X106372380Y-74097142D01*
D11*
X109505714Y-77873333D02*
X109543809Y-77911428D01*
X109581904Y-78025714D01*
X109581904Y-78101904D01*
X109543809Y-78216190D01*
X109467619Y-78292380D01*
X109391428Y-78330476D01*
X109239047Y-78368571D01*
X109124761Y-78368571D01*
X108972380Y-78330476D01*
X108896190Y-78292380D01*
X108820000Y-78216190D01*
X108781904Y-78101904D01*
X108781904Y-78025714D01*
X108820000Y-77911428D01*
X108858095Y-77873333D01*
X108781904Y-77149523D02*
X108781904Y-77530476D01*
X109162857Y-77568571D01*
X109124761Y-77530476D01*
X109086666Y-77454285D01*
X109086666Y-77263809D01*
X109124761Y-77187619D01*
X109162857Y-77149523D01*
X109239047Y-77111428D01*
X109429523Y-77111428D01*
X109505714Y-77149523D01*
X109543809Y-77187619D01*
X109581904Y-77263809D01*
X109581904Y-77454285D01*
X109543809Y-77530476D01*
X109505714Y-77568571D01*
%TO.C,D1*%
D13*
X108175714Y-61852380D02*
X107604285Y-61852380D01*
X107890000Y-61852380D02*
X107890000Y-60852380D01*
X107794761Y-60995238D01*
X107699523Y-61090476D01*
X107604285Y-61138095D01*
X108604285Y-61852380D02*
X108604285Y-60852380D01*
X109175714Y-61852380D01*
X109175714Y-60852380D01*
X110128095Y-60852380D02*
X109651904Y-60852380D01*
X109604285Y-61328571D01*
X109651904Y-61280952D01*
X109747142Y-61233333D01*
X109985238Y-61233333D01*
X110080476Y-61280952D01*
X110128095Y-61328571D01*
X110175714Y-61423809D01*
X110175714Y-61661904D01*
X110128095Y-61757142D01*
X110080476Y-61804761D01*
X109985238Y-61852380D01*
X109747142Y-61852380D01*
X109651904Y-61804761D01*
X109604285Y-61757142D01*
X110747142Y-61280952D02*
X110651904Y-61233333D01*
X110604285Y-61185714D01*
X110556666Y-61090476D01*
X110556666Y-61042857D01*
X110604285Y-60947619D01*
X110651904Y-60900000D01*
X110747142Y-60852380D01*
X110937619Y-60852380D01*
X111032857Y-60900000D01*
X111080476Y-60947619D01*
X111128095Y-61042857D01*
X111128095Y-61090476D01*
X111080476Y-61185714D01*
X111032857Y-61233333D01*
X110937619Y-61280952D01*
X110747142Y-61280952D01*
X110651904Y-61328571D01*
X110604285Y-61376190D01*
X110556666Y-61471428D01*
X110556666Y-61661904D01*
X110604285Y-61757142D01*
X110651904Y-61804761D01*
X110747142Y-61852380D01*
X110937619Y-61852380D01*
X111032857Y-61804761D01*
X111080476Y-61757142D01*
X111128095Y-61661904D01*
X111128095Y-61471428D01*
X111080476Y-61376190D01*
X111032857Y-61328571D01*
X110937619Y-61280952D01*
X112080476Y-61852380D02*
X111509047Y-61852380D01*
X111794761Y-61852380D02*
X111794761Y-60852380D01*
X111699523Y-60995238D01*
X111604285Y-61090476D01*
X111509047Y-61138095D01*
X112556666Y-61852380D02*
X112747142Y-61852380D01*
X112842380Y-61804761D01*
X112890000Y-61757142D01*
X112985238Y-61614285D01*
X113032857Y-61423809D01*
X113032857Y-61042857D01*
X112985238Y-60947619D01*
X112937619Y-60900000D01*
X112842380Y-60852380D01*
X112651904Y-60852380D01*
X112556666Y-60900000D01*
X112509047Y-60947619D01*
X112461428Y-61042857D01*
X112461428Y-61280952D01*
X112509047Y-61376190D01*
X112556666Y-61423809D01*
X112651904Y-61471428D01*
X112842380Y-61471428D01*
X112937619Y-61423809D01*
X112985238Y-61376190D01*
X113032857Y-61280952D01*
X113366190Y-60852380D02*
X113604285Y-61852380D01*
X113794761Y-61138095D01*
X113985238Y-61852380D01*
X114223333Y-60852380D01*
X110278904Y-65857380D02*
X110278904Y-64857380D01*
X110517000Y-64857380D01*
X110659857Y-64905000D01*
X110755095Y-65000238D01*
X110802714Y-65095476D01*
X110850333Y-65285952D01*
X110850333Y-65428809D01*
X110802714Y-65619285D01*
X110755095Y-65714523D01*
X110659857Y-65809761D01*
X110517000Y-65857380D01*
X110278904Y-65857380D01*
X111802714Y-65857380D02*
X111231285Y-65857380D01*
X111517000Y-65857380D02*
X111517000Y-64857380D01*
X111421761Y-65000238D01*
X111326523Y-65095476D01*
X111231285Y-65143095D01*
%TO.C,D2*%
X114022380Y-78978095D02*
X114022380Y-79454285D01*
X113022380Y-79454285D01*
X113498571Y-78644761D02*
X113498571Y-78311428D01*
X114022380Y-78168571D02*
X114022380Y-78644761D01*
X113022380Y-78644761D01*
X113022380Y-78168571D01*
X114022380Y-77740000D02*
X113022380Y-77740000D01*
X113022380Y-77501904D01*
X113070000Y-77359047D01*
X113165238Y-77263809D01*
X113260476Y-77216190D01*
X113450952Y-77168571D01*
X113593809Y-77168571D01*
X113784285Y-77216190D01*
X113879523Y-77263809D01*
X113974761Y-77359047D01*
X114022380Y-77501904D01*
X114022380Y-77740000D01*
X114117619Y-76978095D02*
X114117619Y-76216190D01*
X113736666Y-76025714D02*
X113736666Y-75549523D01*
X114022380Y-76120952D02*
X113022380Y-75787619D01*
X114022380Y-75454285D01*
X114022380Y-74644761D02*
X114022380Y-75120952D01*
X113022380Y-75120952D01*
X113022380Y-74454285D02*
X113022380Y-73882857D01*
X114022380Y-74168571D02*
X113022380Y-74168571D01*
D14*
X112320952Y-77035238D02*
X111920952Y-77035238D01*
X111920952Y-76940000D01*
X111940000Y-76882857D01*
X111978095Y-76844761D01*
X112016190Y-76825714D01*
X112092380Y-76806666D01*
X112149523Y-76806666D01*
X112225714Y-76825714D01*
X112263809Y-76844761D01*
X112301904Y-76882857D01*
X112320952Y-76940000D01*
X112320952Y-77035238D01*
X111959047Y-76654285D02*
X111940000Y-76635238D01*
X111920952Y-76597142D01*
X111920952Y-76501904D01*
X111940000Y-76463809D01*
X111959047Y-76444761D01*
X111997142Y-76425714D01*
X112035238Y-76425714D01*
X112092380Y-76444761D01*
X112320952Y-76673333D01*
X112320952Y-76425714D01*
%TO.C,L1*%
D13*
X109842380Y-78930476D02*
X108842380Y-78930476D01*
X109556666Y-78597142D01*
X108842380Y-78263809D01*
X109842380Y-78263809D01*
X108842380Y-77882857D02*
X109842380Y-77644761D01*
X109128095Y-77454285D01*
X109842380Y-77263809D01*
X108842380Y-77025714D01*
X109794761Y-76692380D02*
X109842380Y-76549523D01*
X109842380Y-76311428D01*
X109794761Y-76216190D01*
X109747142Y-76168571D01*
X109651904Y-76120952D01*
X109556666Y-76120952D01*
X109461428Y-76168571D01*
X109413809Y-76216190D01*
X109366190Y-76311428D01*
X109318571Y-76501904D01*
X109270952Y-76597142D01*
X109223333Y-76644761D01*
X109128095Y-76692380D01*
X109032857Y-76692380D01*
X108937619Y-76644761D01*
X108890000Y-76597142D01*
X108842380Y-76501904D01*
X108842380Y-76263809D01*
X108890000Y-76120952D01*
X109556666Y-75740000D02*
X109556666Y-75263809D01*
X109842380Y-75835238D02*
X108842380Y-75501904D01*
X109842380Y-75168571D01*
X108842380Y-74644761D02*
X108842380Y-74549523D01*
X108890000Y-74454285D01*
X108937619Y-74406666D01*
X109032857Y-74359047D01*
X109223333Y-74311428D01*
X109461428Y-74311428D01*
X109651904Y-74359047D01*
X109747142Y-74406666D01*
X109794761Y-74454285D01*
X109842380Y-74549523D01*
X109842380Y-74644761D01*
X109794761Y-74740000D01*
X109747142Y-74787619D01*
X109651904Y-74835238D01*
X109461428Y-74882857D01*
X109223333Y-74882857D01*
X109032857Y-74835238D01*
X108937619Y-74787619D01*
X108890000Y-74740000D01*
X108842380Y-74644761D01*
X109175714Y-73454285D02*
X109842380Y-73454285D01*
X108794761Y-73692380D02*
X109509047Y-73930476D01*
X109509047Y-73311428D01*
X108842380Y-72740000D02*
X108842380Y-72644761D01*
X108890000Y-72549523D01*
X108937619Y-72501904D01*
X109032857Y-72454285D01*
X109223333Y-72406666D01*
X109461428Y-72406666D01*
X109651904Y-72454285D01*
X109747142Y-72501904D01*
X109794761Y-72549523D01*
X109842380Y-72644761D01*
X109842380Y-72740000D01*
X109794761Y-72835238D01*
X109747142Y-72882857D01*
X109651904Y-72930476D01*
X109461428Y-72978095D01*
X109223333Y-72978095D01*
X109032857Y-72930476D01*
X108937619Y-72882857D01*
X108890000Y-72835238D01*
X108842380Y-72740000D01*
X108937619Y-72025714D02*
X108890000Y-71978095D01*
X108842380Y-71882857D01*
X108842380Y-71644761D01*
X108890000Y-71549523D01*
X108937619Y-71501904D01*
X109032857Y-71454285D01*
X109128095Y-71454285D01*
X109270952Y-71501904D01*
X109842380Y-72073333D01*
X109842380Y-71454285D01*
X109794761Y-71073333D02*
X109842380Y-70930476D01*
X109842380Y-70692380D01*
X109794761Y-70597142D01*
X109747142Y-70549523D01*
X109651904Y-70501904D01*
X109556666Y-70501904D01*
X109461428Y-70549523D01*
X109413809Y-70597142D01*
X109366190Y-70692380D01*
X109318571Y-70882857D01*
X109270952Y-70978095D01*
X109223333Y-71025714D01*
X109128095Y-71073333D01*
X109032857Y-71073333D01*
X108937619Y-71025714D01*
X108890000Y-70978095D01*
X108842380Y-70882857D01*
X108842380Y-70644761D01*
X108890000Y-70501904D01*
X109461428Y-70073333D02*
X109461428Y-69311428D01*
X109842380Y-68311428D02*
X109842380Y-68882857D01*
X109842380Y-68597142D02*
X108842380Y-68597142D01*
X108985238Y-68692380D01*
X109080476Y-68787619D01*
X109128095Y-68882857D01*
X108842380Y-67692380D02*
X108842380Y-67597142D01*
X108890000Y-67501904D01*
X108937619Y-67454285D01*
X109032857Y-67406666D01*
X109223333Y-67359047D01*
X109461428Y-67359047D01*
X109651904Y-67406666D01*
X109747142Y-67454285D01*
X109794761Y-67501904D01*
X109842380Y-67597142D01*
X109842380Y-67692380D01*
X109794761Y-67787619D01*
X109747142Y-67835238D01*
X109651904Y-67882857D01*
X109461428Y-67930476D01*
X109223333Y-67930476D01*
X109032857Y-67882857D01*
X108937619Y-67835238D01*
X108890000Y-67787619D01*
X108842380Y-67692380D01*
X108842380Y-66740000D02*
X108842380Y-66644761D01*
X108890000Y-66549523D01*
X108937619Y-66501904D01*
X109032857Y-66454285D01*
X109223333Y-66406666D01*
X109461428Y-66406666D01*
X109651904Y-66454285D01*
X109747142Y-66501904D01*
X109794761Y-66549523D01*
X109842380Y-66644761D01*
X109842380Y-66740000D01*
X109794761Y-66835238D01*
X109747142Y-66882857D01*
X109651904Y-66930476D01*
X109461428Y-66978095D01*
X109223333Y-66978095D01*
X109032857Y-66930476D01*
X108937619Y-66882857D01*
X108890000Y-66835238D01*
X108842380Y-66740000D01*
X109842380Y-65978095D02*
X108842380Y-65978095D01*
X109556666Y-65644761D01*
X108842380Y-65311428D01*
X109842380Y-65311428D01*
X108842380Y-64978095D02*
X108842380Y-64406666D01*
X109842380Y-64692380D02*
X108842380Y-64692380D01*
X106592380Y-71906666D02*
X106592380Y-72382857D01*
X105592380Y-72382857D01*
X106592380Y-71049523D02*
X106592380Y-71620952D01*
X106592380Y-71335238D02*
X105592380Y-71335238D01*
X105735238Y-71430476D01*
X105830476Y-71525714D01*
X105878095Y-71620952D01*
%TO.C,R1*%
X116022380Y-77335238D02*
X116022380Y-77906666D01*
X116022380Y-77620952D02*
X115022380Y-77620952D01*
X115165238Y-77716190D01*
X115260476Y-77811428D01*
X115308095Y-77906666D01*
X115022380Y-76716190D02*
X115022380Y-76620952D01*
X115070000Y-76525714D01*
X115117619Y-76478095D01*
X115212857Y-76430476D01*
X115403333Y-76382857D01*
X115641428Y-76382857D01*
X115831904Y-76430476D01*
X115927142Y-76478095D01*
X115974761Y-76525714D01*
X116022380Y-76620952D01*
X116022380Y-76716190D01*
X115974761Y-76811428D01*
X115927142Y-76859047D01*
X115831904Y-76906666D01*
X115641428Y-76954285D01*
X115403333Y-76954285D01*
X115212857Y-76906666D01*
X115117619Y-76859047D01*
X115070000Y-76811428D01*
X115022380Y-76716190D01*
X116022380Y-75954285D02*
X115022380Y-75954285D01*
X115641428Y-75859047D02*
X116022380Y-75573333D01*
X115355714Y-75573333D02*
X115736666Y-75954285D01*
D14*
X114320952Y-76806666D02*
X114130476Y-76940000D01*
X114320952Y-77035238D02*
X113920952Y-77035238D01*
X113920952Y-76882857D01*
X113940000Y-76844761D01*
X113959047Y-76825714D01*
X113997142Y-76806666D01*
X114054285Y-76806666D01*
X114092380Y-76825714D01*
X114111428Y-76844761D01*
X114130476Y-76882857D01*
X114130476Y-77035238D01*
X114320952Y-76425714D02*
X114320952Y-76654285D01*
X114320952Y-76540000D02*
X113920952Y-76540000D01*
X113978095Y-76578095D01*
X114016190Y-76616190D01*
X114035238Y-76654285D01*
%TO.C,U1*%
D13*
X113544761Y-74311428D02*
X113592380Y-74168571D01*
X113592380Y-73930476D01*
X113544761Y-73835238D01*
X113497142Y-73787619D01*
X113401904Y-73740000D01*
X113306666Y-73740000D01*
X113211428Y-73787619D01*
X113163809Y-73835238D01*
X113116190Y-73930476D01*
X113068571Y-74120952D01*
X113020952Y-74216190D01*
X112973333Y-74263809D01*
X112878095Y-74311428D01*
X112782857Y-74311428D01*
X112687619Y-74263809D01*
X112640000Y-74216190D01*
X112592380Y-74120952D01*
X112592380Y-73882857D01*
X112640000Y-73740000D01*
X113497142Y-72740000D02*
X113544761Y-72787619D01*
X113592380Y-72930476D01*
X113592380Y-73025714D01*
X113544761Y-73168571D01*
X113449523Y-73263809D01*
X113354285Y-73311428D01*
X113163809Y-73359047D01*
X113020952Y-73359047D01*
X112830476Y-73311428D01*
X112735238Y-73263809D01*
X112640000Y-73168571D01*
X112592380Y-73025714D01*
X112592380Y-72930476D01*
X112640000Y-72787619D01*
X112687619Y-72740000D01*
X112592380Y-72454285D02*
X112592380Y-71882857D01*
X113592380Y-72168571D02*
X112592380Y-72168571D01*
X112687619Y-71597142D02*
X112640000Y-71549523D01*
X112592380Y-71454285D01*
X112592380Y-71216190D01*
X112640000Y-71120952D01*
X112687619Y-71073333D01*
X112782857Y-71025714D01*
X112878095Y-71025714D01*
X113020952Y-71073333D01*
X113592380Y-71644761D01*
X113592380Y-71025714D01*
X112592380Y-70692380D02*
X112592380Y-70073333D01*
X112973333Y-70406666D01*
X112973333Y-70263809D01*
X113020952Y-70168571D01*
X113068571Y-70120952D01*
X113163809Y-70073333D01*
X113401904Y-70073333D01*
X113497142Y-70120952D01*
X113544761Y-70168571D01*
X113592380Y-70263809D01*
X113592380Y-70549523D01*
X113544761Y-70644761D01*
X113497142Y-70692380D01*
X112687619Y-69692380D02*
X112640000Y-69644761D01*
X112592380Y-69549523D01*
X112592380Y-69311428D01*
X112640000Y-69216190D01*
X112687619Y-69168571D01*
X112782857Y-69120952D01*
X112878095Y-69120952D01*
X113020952Y-69168571D01*
X113592380Y-69740000D01*
X113592380Y-69120952D01*
X112592380Y-68216190D02*
X112592380Y-68692380D01*
X113068571Y-68740000D01*
X113020952Y-68692380D01*
X112973333Y-68597142D01*
X112973333Y-68359047D01*
X113020952Y-68263809D01*
X113068571Y-68216190D01*
X113163809Y-68168571D01*
X113401904Y-68168571D01*
X113497142Y-68216190D01*
X113544761Y-68263809D01*
X113592380Y-68359047D01*
X113592380Y-68597142D01*
X113544761Y-68692380D01*
X113497142Y-68740000D01*
D15*
X110259047Y-70966190D02*
X110259047Y-71370952D01*
X110282857Y-71418571D01*
X110306666Y-71442380D01*
X110354285Y-71466190D01*
X110449523Y-71466190D01*
X110497142Y-71442380D01*
X110520952Y-71418571D01*
X110544761Y-71370952D01*
X110544761Y-70966190D01*
X111044761Y-71466190D02*
X110759047Y-71466190D01*
X110901904Y-71466190D02*
X110901904Y-70966190D01*
X110854285Y-71037619D01*
X110806666Y-71085238D01*
X110759047Y-71109047D01*
%TD*%
M02*
