M48
; DRILL file {KiCad (5.1.9)-1} date 05/28/21 15:44:09
; FORMAT={-:-/ absolute / inch / decimal}
; #@! TF.CreationDate,2021-05-28T15:44:09+02:00
; #@! TF.GenerationSoftware,Kicad,Pcbnew,(5.1.9)-1
; #@! TF.FileFunction,Plated,1,2,PTH
FMAT,2
INCH
T1C0.0236
T2C0.0300
T3C0.0394
%
G90
G05
T1
X4.05Y-2.7
X4.05Y-2.8
X4.05Y-2.9
X4.1984Y-3.15
X4.3559Y-2.9425
X4.4Y-3.15
X4.425Y-2.575
X4.425Y-2.625
X4.425Y-2.675
X4.5Y-3.15
X4.55Y-3.0
X4.6Y-2.9425
X4.6Y-3.05
X4.6Y-3.15
X4.65Y-2.6
X4.65Y-2.7
X4.65Y-2.9
X4.65Y-3.0
X4.7Y-2.75
X4.7Y-2.85
X4.7Y-2.95
X4.7Y-3.05
X4.7Y-3.15
T2
X4.0Y-2.5
X4.0Y-2.6
X4.0Y-3.0
X4.0Y-3.1
X4.7Y-2.5
T3
X4.1Y-2.5
X4.1Y-2.6
X4.1Y-3.0
X4.1Y-3.1
X4.6Y-2.5
T0
M30
